<svg width="1000" height="1000" viewBox="0 0 1000 1000" fill="none" xmlns="http://www.w3.org/2000/svg">
<g filter="url(#filter0_d_542_2)">
<path d="M284.155 209.192C429.109 74.0788 400.692 320.169 535.807 465.122C670.92 610.075 918.398 599 773.445 734.113C628.492 869.226 401.452 861.25 266.339 716.297C131.226 571.344 139.203 344.305 284.155 209.192Z" fill="url(#paint0_linear_542_2)"/>
</g>
<g filter="url(#filter1_d_542_2)">
<path d="M703.928 434.734C773.1 434.734 829.176 378.659 829.176 309.486C829.176 240.314 773.1 184.238 703.928 184.238C634.755 184.238 578.68 240.314 578.68 309.486C578.68 378.659 634.755 434.734 703.928 434.734Z" fill="url(#paint1_linear_542_2)"/>
</g>
<defs>
<filter id="filter0_d_542_2" x="120" y="120" width="747.536" height="760.453" filterUnits="userSpaceOnUse" color-interpolation-filters="sRGB">
<feFlood flood-opacity="0" result="BackgroundImageFix"/>
<feColorMatrix in="SourceAlpha" type="matrix" values="0 0 0 0 0 0 0 0 0 0 0 0 0 0 0 0 0 0 127 0" result="hardAlpha"/>
<feOffset/>
<feGaussianBlur stdDeviation="25"/>
<feComposite in2="hardAlpha" operator="out"/>
<feColorMatrix type="matrix" values="0 0 0 0 0.0588235 0 0 0 0 0.827451 0 0 0 0 1 0 0 0 0.5 0"/>
<feBlend mode="normal" in2="BackgroundImageFix" result="effect1_dropShadow_542_2"/>
<feBlend mode="normal" in="SourceGraphic" in2="effect1_dropShadow_542_2" result="shape"/>
</filter>
<filter id="filter1_d_542_2" x="528.68" y="134.238" width="350.496" height="350.496" filterUnits="userSpaceOnUse" color-interpolation-filters="sRGB">
<feFlood flood-opacity="0" result="BackgroundImageFix"/>
<feColorMatrix in="SourceAlpha" type="matrix" values="0 0 0 0 0 0 0 0 0 0 0 0 0 0 0 0 0 0 127 0" result="hardAlpha"/>
<feOffset/>
<feGaussianBlur stdDeviation="25"/>
<feComposite in2="hardAlpha" operator="out"/>
<feColorMatrix type="matrix" values="0 0 0 0 0.0588235 0 0 0 0 0.827451 0 0 0 0 1 0 0 0 0.5 0"/>
<feBlend mode="normal" in2="BackgroundImageFix" result="effect1_dropShadow_542_2"/>
<feBlend mode="normal" in="SourceGraphic" in2="effect1_dropShadow_542_2" result="shape"/>
</filter>
<linearGradient id="paint0_linear_542_2" x1="510.984" y1="978.758" x2="546.616" y2="-35.4522" gradientUnits="userSpaceOnUse">
<stop stop-color="#BDFF00"/>
<stop offset="0.109375" stop-color="#9FFF54"/>
<stop offset="0.369792" stop-color="#00E0FF"/>
<stop offset="0.572917" stop-color="#6D7BFF"/>
<stop offset="0.833333" stop-color="#9B00FF"/>
<stop offset="1" stop-color="#FF00B8"/>
</linearGradient>
<linearGradient id="paint1_linear_542_2" x1="703.928" y1="184.238" x2="703.928" y2="434.734" gradientUnits="userSpaceOnUse">
<stop stop-color="#18C9FF"/>
<stop offset="1" stop-color="#77F77F"/>
</linearGradient>
</defs>
</svg>
