<?xml version="1.0" encoding="utf-8"?>
<svg width="1000px" height="1000px" viewBox="0 0 1000 1000" version="1.1" xmlns:xlink="http://www.w3.org/1999/xlink" xmlns="http://www.w3.org/2000/svg">
  <defs>
    <linearGradient x1="1.0385365" y1="0" x2="0.20477189" y2="0.8028264" id="gradient_1">
      <stop offset="0%" stop-color="#003ACE" />
      <stop offset="100%" stop-color="#005FFF" />
    </linearGradient>
    <linearGradient x1="0" y1="0" x2="0.5905625" y2="0.6974628" id="gradient_2">
      <stop offset="0%" stop-color="#003ACE" />
      <stop offset="100%" stop-color="#005FFF" />
    </linearGradient>
    <rect width="1000" height="1000" id="artboard_1" />
    <clipPath id="clip_1">
      <use xlink:href="#artboard_1" clip-rule="evenodd" />
    </clipPath>
  </defs>
  <g id="Logo" clip-path="url(#clip_1)">
    <g id="Group" transform="translate(232.99936 143.99954)">
      <path d="M380.001 -2.43702e-05L391.101 -1.64928e-05Q394.636 -1.39842e-05 398.166 0.173442Q401.697 0.346897 405.215 0.693388Q408.733 1.03988 412.23 1.55857Q415.726 2.07726 419.193 2.7669Q422.661 3.45655 426.09 4.31548Q429.519 5.17441 432.901 6.20056Q436.284 7.22671 439.612 8.41761Q442.941 9.60851 446.207 10.9613Q449.473 12.3141 452.668 13.8255Q455.864 15.3369 458.981 17.0033Q462.099 18.6696 465.131 20.487Q468.163 22.3043 471.102 24.2682Q474.041 26.2322 476.881 28.338Q479.72 30.4437 482.453 32.6863Q485.185 34.9289 487.804 37.3028Q490.424 39.6768 492.923 42.1764Q495.423 44.676 497.797 47.2952Q500.171 49.9145 502.413 52.6471Q504.656 55.3796 506.762 58.2189Q508.867 61.0583 510.831 63.9975Q512.795 66.9367 514.613 69.9688Q516.43 73.0008 518.096 76.1184Q519.763 79.236 521.274 82.4315Q522.785 85.6271 524.138 88.893Q525.491 92.1589 526.682 95.4872Q527.873 98.8156 528.899 102.198Q529.925 105.581 530.784 109.01Q531.643 112.439 532.332 115.906Q533.022 119.373 533.541 122.87Q534.059 126.367 534.406 129.885Q534.752 133.403 534.926 136.933Q535.099 140.464 535.099 143.999L535.099 144.001Q535.099 147.536 534.926 151.067Q534.752 154.597 534.406 158.115Q534.059 161.633 533.541 165.13Q533.022 168.627 532.332 172.094Q531.643 175.561 530.784 178.99Q529.925 182.419 528.899 185.802Q527.873 189.184 526.682 192.513Q525.491 195.841 524.138 199.107Q522.785 202.373 521.274 205.568Q519.762 208.764 518.096 211.882Q516.43 214.999 514.612 218.031Q512.795 221.063 510.831 224.003Q508.867 226.942 506.761 229.781Q504.655 232.62 502.413 235.353Q500.17 238.085 497.796 240.705Q495.422 243.324 492.923 245.824Q490.423 248.323 487.804 250.697Q485.185 253.071 482.452 255.314Q479.72 257.556 476.88 259.662Q474.041 261.768 471.102 263.732Q468.162 265.696 465.13 267.513Q462.098 269.33 458.981 270.997Q455.863 272.663 452.668 274.174Q449.472 275.686 446.206 277.039Q442.94 278.391 439.612 279.582Q436.284 280.773 432.901 281.799Q429.518 282.825 426.089 283.684Q422.66 284.543 419.193 285.233Q415.726 285.923 412.229 286.441Q408.732 286.96 405.214 287.306Q401.697 287.653 398.166 287.826Q394.635 288 391.1 288L380 288Q376.465 288 372.934 287.826Q369.404 287.653 365.886 287.306Q362.368 286.96 358.871 286.441Q355.374 285.922 351.907 285.233Q348.44 284.543 345.011 283.684Q341.582 282.825 338.199 281.799Q334.816 280.773 331.488 279.582Q328.16 278.391 324.894 277.038Q321.628 275.686 318.432 274.174Q315.237 272.663 312.119 270.997Q309.002 269.33 305.97 267.513Q302.938 265.695 299.999 263.732Q297.059 261.768 294.22 259.662Q291.381 257.556 288.648 255.313Q285.916 253.071 283.296 250.697Q280.677 248.323 278.177 245.823Q275.678 243.324 273.304 240.705Q270.93 238.085 268.687 235.353Q266.445 232.62 264.339 229.781Q262.233 226.942 260.269 224.002Q258.305 221.063 256.488 218.031Q254.671 214.999 253.004 211.881Q251.338 208.764 249.827 205.568Q248.315 202.373 246.963 199.107Q245.61 195.841 244.419 192.513Q243.228 189.184 242.202 185.801Q241.176 182.419 240.317 178.99Q239.458 175.561 238.768 172.094Q238.079 168.627 237.56 165.13Q237.041 161.633 236.695 158.115Q236.348 154.597 236.175 151.066Q236.001 147.536 236.001 144.001L236.001 143.999Q236.001 140.464 236.175 136.933Q236.348 133.402 236.695 129.884Q237.041 126.366 237.56 122.87Q238.079 119.373 238.768 115.906Q239.458 112.439 240.317 109.01Q241.176 105.581 242.202 102.198Q243.228 98.8153 244.419 95.487Q245.61 92.1587 246.963 88.8928Q248.316 85.6269 249.827 82.4313Q251.338 79.2357 253.005 76.1182Q254.671 73.0006 256.488 69.9685Q258.306 66.9365 260.27 63.9973Q262.234 61.058 264.339 58.2187Q266.445 55.3794 268.688 52.6468Q270.93 49.9143 273.304 47.295Q275.678 44.6758 278.178 42.1762Q280.678 39.6766 283.297 37.3026Q285.916 34.9287 288.649 32.6861Q291.381 30.4436 294.22 28.3378Q297.06 26.232 299.999 24.2681Q302.938 22.3042 305.97 20.4868Q309.002 18.6695 312.12 17.0031Q315.237 15.3368 318.433 13.8254Q321.629 12.314 324.895 10.9612Q328.16 9.60842 331.489 8.41753Q334.817 7.22663 338.2 6.20049Q341.583 5.17434 345.012 4.31542Q348.441 3.45649 351.908 2.76685Q355.375 2.07722 358.872 1.55853Q362.368 1.03984 365.886 0.693359Q369.404 0.346874 372.935 0.173424Q376.466 -2.68789e-05 380.001 -2.43702e-05L380.001 -2.43702e-05Z" id="Rectangle" fill="none" fill-rule="evenodd" stroke="url(#gradient_1)" stroke-width="100" />
      <path d="M501 461.713C501 600.06 388.847 712.213 250.5 712.213C112.153 712.213 3.05176e-05 600.06 0 461.713C0 394.262 26.6591 333.037 70.0155 288.001" id="Ellipse" fill="none" fill-rule="evenodd" stroke="url(#gradient_2)" stroke-width="166" stroke-linecap="round" />
    </g>
  </g>
</svg>