<?xml version="1.0" encoding="utf-8"?>
<svg width="1000px" height="1000px" viewBox="0 0 1000 1000" version="1.1" xmlns:xlink="http://www.w3.org/1999/xlink" xmlns="http://www.w3.org/2000/svg">
  <defs>
    <linearGradient x1="0" y1="0" x2="1" y2="1" id="gradient_1">
      <stop offset="0%" stop-color="#D700FF" />
      <stop offset="100%" stop-color="#6600FF" />
    </linearGradient>
    <filter filterUnits="userSpaceOnUse" color-interpolation-filters="sRGB" id="filter_1">
      <feFlood flood-opacity="0" result="BackgroundImageFix" />
      <feColorMatrix in="SourceAlpha" type="matrix" values="0 0 0 0 0 0 0 0 0 0 0 0 0 0 0 0 0 0 127 0" />
      <feOffset dx="0" dy="0" />
      <feGaussianBlur stdDeviation="10" />
      <feColorMatrix type="matrix" values="0 0 0 0 0.39215687 0 0 0 0 0.39215687 0 0 0 0 0.39215687 0 0 0 0.49803922 0" />
      <feBlend mode="normal" in2="BackgroundImageFix" result="effect0_dropShadow" />
      <feBlend mode="normal" in="SourceGraphic" in2="effect0_dropShadow" result="shape" />
    </filter>
    <rect width="1000" height="1000" id="artboard_1" />
    <clipPath id="clip_1">
      <use xlink:href="#artboard_1" clip-rule="evenodd" />
    </clipPath>
  </defs>
  <g id="Logo" clip-path="url(#clip_1)">
    <g filter="url(#filter_1)">
      <g id="Group" transform="translate(155.71729 141.72162)">
        <path d="M174.778 0L34.999 0Q34.1398 0 33.2817 0.0421578Q32.4235 0.0843156 31.5685 0.16853Q30.7135 0.252744 29.8636 0.378811Q29.0137 0.504879 28.171 0.672496Q27.3284 0.840113 26.4949 1.04888Q25.6615 1.25764 24.8393 1.50705Q24.0171 1.75645 23.2082 2.0459Q22.3992 2.33535 21.6055 2.66414Q20.8117 2.99293 20.035 3.36028Q19.2583 3.72762 18.5006 4.13264Q17.7429 4.53765 17.0059 4.97936Q16.269 5.42106 15.5546 5.89839Q14.8402 6.37573 14.1501 6.88754Q13.46 7.39935 12.7959 7.94441Q12.1317 8.48946 11.4951 9.06645Q10.8585 9.64344 10.251 10.251Q9.64344 10.8585 9.06645 11.4951Q8.48946 12.1317 7.94441 12.7959Q7.39935 13.46 6.88754 14.1501Q6.37573 14.8402 5.89839 15.5546Q5.42106 16.269 4.97936 17.0059Q4.53765 17.7429 4.13264 18.5006Q3.72762 19.2583 3.36028 20.035Q2.99293 20.8117 2.66414 21.6055Q2.33535 22.3992 2.0459 23.2082Q1.75645 24.0171 1.50704 24.8393Q1.25764 25.6615 1.04888 26.4949Q0.840113 27.3284 0.672496 28.171Q0.504879 29.0137 0.378811 29.8636Q0.252744 30.7135 0.16853 31.5685Q0.0843156 32.4235 0.0421578 33.2817Q0 34.1398 0 34.999L0 426.718Q0 427.577 0.0421578 428.435Q0.0843156 429.294 0.16853 430.149Q0.252744 431.004 0.378811 431.853Q0.504879 432.703 0.672496 433.546Q0.840113 434.389 1.04888 435.222Q1.25764 436.056 1.50705 436.878Q1.75645 437.7 2.0459 438.509Q2.33535 439.318 2.66414 440.112Q2.99293 440.905 3.36028 441.682Q3.72762 442.459 4.13264 443.217Q4.53765 443.974 4.97936 444.711Q5.42106 445.448 5.89839 446.162Q6.37573 446.877 6.88754 447.567Q7.39935 448.257 7.94441 448.921Q8.48946 449.585 9.06645 450.222Q9.64344 450.859 10.251 451.466Q10.8585 452.074 11.4951 452.651Q12.1317 453.228 12.7959 453.773Q13.46 454.318 14.1501 454.83Q14.8402 455.341 15.5546 455.819Q16.269 456.296 17.0059 456.738Q17.7429 457.179 18.5006 457.584Q19.2583 457.989 20.035 458.357Q20.8117 458.724 21.6055 459.053Q22.3992 459.382 23.2082 459.671Q24.0171 459.961 24.8393 460.21Q25.6615 460.459 26.4949 460.668Q27.3284 460.877 28.171 461.045Q29.0137 461.212 29.8636 461.338Q30.7135 461.464 31.5685 461.549Q32.4235 461.633 33.2817 461.675Q34.1398 461.717 34.999 461.717L174.778 461.717Q175.637 461.717 176.495 461.675Q177.353 461.633 178.208 461.549Q179.063 461.464 179.913 461.338Q180.763 461.212 181.606 461.045Q182.448 460.877 183.282 460.668Q184.115 460.459 184.937 460.21Q185.76 459.961 186.569 459.671Q187.378 459.382 188.171 459.053Q188.965 458.724 189.742 458.357Q190.518 457.989 191.276 457.584Q192.034 457.179 192.771 456.738Q193.508 456.296 194.222 455.819Q194.937 455.341 195.627 454.83Q196.317 454.318 196.981 453.773Q197.645 453.228 198.282 452.651Q198.918 452.074 199.526 451.466Q200.133 450.859 200.71 450.222Q201.287 449.585 201.832 448.921Q202.377 448.257 202.889 447.567Q203.401 446.877 203.878 446.162Q204.356 445.448 204.797 444.711Q205.239 443.974 205.644 443.217Q206.049 442.459 206.416 441.682Q206.784 440.905 207.113 440.112Q207.441 439.318 207.731 438.509Q208.02 437.7 208.27 436.878Q208.519 436.056 208.728 435.222Q208.937 434.389 209.104 433.546Q209.272 432.703 209.398 431.854Q209.524 431.004 209.608 430.149Q209.692 429.294 209.735 428.435Q209.777 427.577 209.777 426.718L209.777 195.888L606.284 195.888Q608.346 195.888 610.405 195.787Q612.465 195.686 614.517 195.484Q616.569 195.282 618.609 194.979Q620.649 194.676 622.671 194.274Q624.693 193.872 626.694 193.371Q628.694 192.87 630.667 192.271Q632.641 191.673 634.582 190.978Q636.524 190.283 638.429 189.494Q640.334 188.705 642.198 187.823Q644.062 186.942 645.88 185.97Q647.699 184.998 649.468 183.938Q651.236 182.877 652.951 181.732Q654.666 180.586 656.322 179.358Q657.978 178.129 659.572 176.821Q661.166 175.513 662.694 174.128Q664.222 172.744 665.68 171.285Q667.138 169.827 668.523 168.3Q669.908 166.772 671.216 165.178Q672.524 163.584 673.752 161.927Q674.981 160.271 676.126 158.557Q677.272 156.842 678.332 155.073Q679.392 153.305 680.364 151.486Q681.336 149.668 682.218 147.803Q683.099 145.939 683.889 144.034Q684.678 142.129 685.372 140.188Q686.067 138.246 686.666 136.273Q687.264 134.3 687.765 132.299Q688.266 130.299 688.669 128.277Q689.071 126.254 689.373 124.214Q689.676 122.175 689.878 120.123Q690.08 118.07 690.182 116.011Q690.283 113.951 690.283 111.889L690.283 83.9998Q690.283 82.969 690.257 81.9384Q690.232 80.9078 690.182 79.8782Q690.131 78.8486 690.055 77.8205Q689.979 76.7924 689.878 75.7665Q689.777 74.7406 689.651 73.7175Q689.525 72.6943 689.374 71.6746Q689.222 70.6549 689.046 69.6392Q688.87 68.6235 688.669 67.6124Q688.468 66.6014 688.242 65.5955Q688.016 64.5897 687.765 63.5897Q687.515 62.5898 687.24 61.5962Q686.965 60.6027 686.666 59.6162Q686.367 58.6297 686.043 57.6509Q685.72 56.672 685.373 55.7014Q685.025 54.7308 684.654 53.769Q684.283 52.8072 683.889 51.8548Q683.494 50.9024 683.077 49.96Q682.659 49.0175 682.218 48.0856Q681.777 47.1537 681.314 46.2329Q680.85 45.3121 680.364 44.403Q679.878 43.4938 679.37 42.5969Q678.862 41.6999 678.332 40.8157Q677.802 39.9315 677.251 39.0605Q676.699 38.1896 676.126 37.3325Q675.554 36.4753 674.96 35.6325Q674.367 34.7897 673.753 33.9617Q673.138 33.1337 672.504 32.321Q671.87 31.5083 671.216 30.7114Q670.562 29.9145 669.889 29.1339Q669.215 28.3533 668.523 27.5895Q667.831 26.8257 667.12 26.0791Q666.409 25.3325 665.68 24.6035Q664.951 23.8746 664.205 23.1638Q663.458 22.4529 662.694 21.7606Q661.93 21.0683 661.15 20.395Q660.369 19.7217 659.572 19.0677Q658.775 18.4137 657.963 17.7795Q657.15 17.1452 656.322 16.5312Q655.494 15.9171 654.651 15.3235Q653.808 14.7299 652.951 14.1572Q652.094 13.5844 651.223 13.0329Q650.352 12.4814 649.468 11.9514Q648.584 11.4215 647.687 10.9133Q646.79 10.4052 645.881 9.91926Q644.972 9.43331 644.051 8.96982Q643.13 8.50632 642.198 8.06557Q641.266 7.62481 640.324 7.20706Q639.381 6.7893 638.429 6.3948Q637.477 6.0003 636.515 5.62929Q635.553 5.25829 634.582 4.91099Q633.612 4.5637 632.633 4.24033Q631.654 3.91697 630.668 3.61772Q629.681 3.31847 628.688 3.04352Q627.694 2.76857 626.694 2.51809Q625.694 2.2676 624.688 2.04174Q623.682 1.81587 622.671 1.61476Q621.66 1.41364 620.644 1.2374Q619.629 1.06116 618.609 0.909896Q617.589 0.758634 616.566 0.632443Q615.543 0.506251 614.517 0.405207Q613.491 0.304162 612.463 0.228325Q611.435 0.152488 610.406 0.101904Q609.376 0.0513203 608.345 0.0260202Q607.315 0.000719999 606.284 0.000718776L174.898 0.000207054Q174.838 0 174.778 0Z" id="Rectangle-Union" fill="url(#gradient_1)" fill-rule="evenodd" stroke="none" />
        <path d="M592.61 411.627C592.61 525.604 483.297 618 348.453 618C213.609 618 104.296 525.603 104.296 411.626" id="Ellipse" fill="none" fill-rule="evenodd" stroke="url(#gradient_1)" stroke-width="207.8" stroke-linecap="round" />
      </g>
    </g>
  </g>
</svg>