<?xml version="1.0" encoding="utf-8"?>
<svg width="1000px" height="1000px" viewBox="0 0 1000 1000" version="1.1" xmlns:xlink="http://www.w3.org/1999/xlink" xmlns="http://www.w3.org/2000/svg">
  <defs>
    <linearGradient x1="0" y1="0" x2="1" y2="1" id="gradient_1">
      <stop offset="0%" stop-color="#F02DD3" />
      <stop offset="100%" stop-color="#4728FF" />
    </linearGradient>
    <rect width="1000" height="1000" id="artboard_1" />
    <clipPath id="clip_1">
      <use xlink:href="#artboard_1" clip-rule="evenodd" />
    </clipPath>
  </defs>
  <g id="Logo-Copy" clip-path="url(#clip_1)">
    <g id="Group-Copy" transform="translate(95 95)">
      <path d="M115.999 0L694.001 0Q696.849 0 699.693 0.139726Q702.537 0.279452 705.371 0.558567Q708.205 0.837682 711.021 1.25551Q713.838 1.67335 716.631 2.22889Q719.424 2.78443 722.186 3.47634Q724.949 4.16826 727.674 4.99488Q730.399 5.8215 733.08 6.78083Q735.761 7.74016 738.392 8.8299Q741.023 9.91963 743.597 11.1371Q746.171 12.3547 748.683 13.697Q751.194 15.0394 753.636 16.5033Q756.079 17.9673 758.447 19.5494Q760.814 21.1314 763.101 22.8277Q765.389 24.524 767.59 26.3306Q769.791 28.1371 771.901 30.0494Q774.011 31.9618 776.025 33.9753Q778.038 35.9889 779.951 38.0988Q781.863 40.2088 783.669 42.41Q785.476 44.6112 787.172 46.8985Q788.869 49.1857 790.451 51.5534Q792.033 53.9211 793.497 56.3636Q794.961 58.8061 796.303 61.3174Q797.645 63.8288 798.863 66.403Q800.08 68.9772 801.17 71.6081Q802.26 74.239 803.219 76.9201Q804.178 79.6013 805.005 82.3263Q805.832 85.0513 806.524 87.8135Q807.216 90.5758 807.771 93.3687Q808.327 96.1616 808.744 98.9784Q809.162 101.795 809.441 104.629Q809.721 107.463 809.86 110.307Q810 113.151 810 115.999L810 694.001Q810 696.849 809.86 699.693Q809.721 702.537 809.441 705.371Q809.162 708.205 808.744 711.021Q808.327 713.838 807.771 716.631Q807.216 719.424 806.524 722.186Q805.832 724.949 805.005 727.674Q804.178 730.399 803.219 733.08Q802.26 735.761 801.17 738.392Q800.08 741.023 798.863 743.597Q797.645 746.171 796.303 748.683Q794.961 751.194 793.497 753.636Q792.033 756.079 790.451 758.447Q788.869 760.814 787.172 763.101Q785.476 765.389 783.669 767.59Q781.863 769.791 779.951 771.901Q778.038 774.011 776.025 776.025Q774.011 778.038 771.901 779.951Q769.791 781.863 767.59 783.669Q765.389 785.476 763.102 787.172Q760.814 788.869 758.447 790.451Q756.079 792.033 753.636 793.497Q751.194 794.961 748.683 796.303Q746.171 797.645 743.597 798.863Q741.023 800.08 738.392 801.17Q735.761 802.26 733.08 803.219Q730.399 804.178 727.674 805.005Q724.949 805.832 722.186 806.524Q719.424 807.216 716.631 807.771Q713.838 808.327 711.022 808.744Q708.205 809.162 705.371 809.441Q702.537 809.721 699.693 809.86Q696.849 810 694.001 810L115.999 810Q113.151 810 110.307 809.86Q107.463 809.721 104.629 809.441Q101.795 809.162 98.9784 808.744Q96.1616 808.327 93.3687 807.771Q90.5758 807.216 87.8135 806.524Q85.0513 805.832 82.3263 805.005Q79.6013 804.178 76.9201 803.219Q74.239 802.26 71.6081 801.17Q68.9772 800.08 66.403 798.863Q63.8288 797.645 61.3174 796.303Q58.8061 794.961 56.3636 793.497Q53.9211 792.033 51.5534 790.451Q49.1857 788.869 46.8985 787.172Q44.6112 785.476 42.41 783.669Q40.2088 781.863 38.0988 779.951Q35.9889 778.038 33.9753 776.025Q31.9618 774.011 30.0494 771.901Q28.1371 769.791 26.3306 767.59Q24.524 765.389 22.8277 763.102Q21.1314 760.814 19.5494 758.447Q17.9673 756.079 16.5033 753.636Q15.0394 751.194 13.697 748.683Q12.3547 746.171 11.1371 743.597Q9.91963 741.023 8.8299 738.392Q7.74016 735.761 6.78083 733.08Q5.8215 730.399 4.99488 727.674Q4.16826 724.949 3.47634 722.186Q2.78443 719.424 2.22889 716.631Q1.67335 713.838 1.25551 711.022Q0.837682 708.205 0.558567 705.371Q0.279452 702.537 0.139726 699.693Q0 696.849 0 694.001L0 115.999Q0 113.151 0.139726 110.307Q0.279452 107.463 0.558567 104.629Q0.837682 101.795 1.25551 98.9784Q1.67335 96.1616 2.22889 93.3687Q2.78443 90.5758 3.47634 87.8135Q4.16826 85.0513 4.99488 82.3263Q5.8215 79.6013 6.78083 76.9201Q7.74016 74.239 8.8299 71.6081Q9.91963 68.9772 11.1371 66.403Q12.3547 63.8288 13.697 61.3174Q15.0394 58.8061 16.5033 56.3636Q17.9673 53.9211 19.5494 51.5534Q21.1314 49.1857 22.8277 46.8985Q24.524 44.6112 26.3306 42.41Q28.1371 40.2088 30.0494 38.0988Q31.9618 35.9889 33.9753 33.9753Q35.9889 31.9618 38.0988 30.0494Q40.2088 28.1371 42.41 26.3306Q44.6112 24.524 46.8985 22.8277Q49.1857 21.1314 51.5534 19.5494Q53.9211 17.9673 56.3636 16.5033Q58.8061 15.0394 61.3174 13.697Q63.8288 12.3547 66.403 11.1371Q68.9772 9.91963 71.6081 8.8299Q74.239 7.74016 76.9201 6.78083Q79.6013 5.8215 82.3263 4.99488Q85.0513 4.16826 87.8135 3.47634Q90.5758 2.78443 93.3687 2.22889Q96.1616 1.67335 98.9784 1.25551Q101.795 0.837682 104.629 0.558567Q107.463 0.279452 110.307 0.139726Q113.151 0 115.999 0L115.999 0Z" id="Rectangle" fill="url(#gradient_1)" fill-rule="evenodd" stroke="none" />
      <path d="M208.461 130.462L601.539 130.462Q603.454 130.462 605.366 130.556Q607.278 130.65 609.184 130.838Q611.09 131.025 612.984 131.306Q614.878 131.587 616.756 131.961Q618.634 132.334 620.491 132.8Q622.348 133.265 624.181 133.821Q626.013 134.377 627.816 135.022Q629.619 135.667 631.388 136.399Q633.157 137.132 634.888 137.951Q636.619 138.77 638.307 139.672Q639.996 140.575 641.638 141.559Q643.281 142.544 644.873 143.607Q646.465 144.671 648.003 145.812Q649.541 146.952 651.021 148.167Q652.501 149.382 653.92 150.668Q655.338 151.954 656.692 153.308Q658.046 154.661 659.332 156.08Q660.618 157.499 661.833 158.979Q663.048 160.459 664.188 161.997Q665.329 163.535 666.393 165.127Q667.456 166.719 668.441 168.362Q669.425 170.004 670.328 171.693Q671.23 173.381 672.049 175.112Q672.868 176.843 673.6 178.612Q674.333 180.381 674.978 182.184Q675.623 183.987 676.179 185.819Q676.735 187.652 677.2 189.509Q677.665 191.366 678.039 193.244Q678.413 195.122 678.694 197.016Q678.974 198.91 679.162 200.816Q679.35 202.721 679.444 204.634Q679.538 206.546 679.538 208.461L679.538 601.539Q679.538 603.454 679.444 605.366Q679.35 607.278 679.162 609.184Q678.974 611.09 678.694 612.984Q678.413 614.878 678.039 616.756Q677.665 618.634 677.2 620.491Q676.735 622.348 676.179 624.181Q675.623 626.013 674.978 627.816Q674.333 629.619 673.6 631.388Q672.868 633.157 672.049 634.888Q671.23 636.619 670.328 638.307Q669.425 639.996 668.441 641.638Q667.456 643.281 666.393 644.873Q665.329 646.465 664.188 648.003Q663.048 649.541 661.833 651.021Q660.618 652.501 659.332 653.92Q658.046 655.338 656.692 656.692Q655.338 658.046 653.92 659.332Q652.501 660.618 651.021 661.833Q649.541 663.048 648.003 664.188Q646.465 665.329 644.873 666.393Q643.281 667.456 641.638 668.441Q639.996 669.425 638.307 670.328Q636.619 671.23 634.888 672.049Q633.157 672.868 631.388 673.6Q629.619 674.333 627.816 674.978Q626.013 675.623 624.181 676.179Q622.348 676.735 620.491 677.2Q618.634 677.665 616.756 678.039Q614.878 678.413 612.984 678.694Q611.09 678.974 609.184 679.162Q607.278 679.35 605.366 679.444Q603.454 679.538 601.539 679.538L208.461 679.538Q206.546 679.538 204.634 679.444Q202.721 679.35 200.816 679.162Q198.91 678.974 197.016 678.694Q195.122 678.413 193.244 678.039Q191.366 677.665 189.509 677.2Q187.652 676.735 185.819 676.179Q183.987 675.623 182.184 674.978Q180.381 674.333 178.612 673.6Q176.843 672.868 175.112 672.049Q173.381 671.23 171.693 670.328Q170.004 669.425 168.362 668.441Q166.719 667.456 165.127 666.393Q163.535 665.329 161.997 664.188Q160.459 663.048 158.979 661.833Q157.499 660.618 156.08 659.332Q154.661 658.046 153.308 656.692Q151.954 655.338 150.668 653.92Q149.382 652.501 148.167 651.021Q146.952 649.541 145.812 648.003Q144.671 646.465 143.607 644.873Q142.544 643.281 141.559 641.638Q140.575 639.996 139.672 638.307Q138.77 636.619 137.951 634.888Q137.132 633.157 136.399 631.388Q135.667 629.619 135.022 627.816Q134.377 626.013 133.821 624.181Q133.265 622.348 132.8 620.491Q132.334 618.634 131.961 616.756Q131.587 614.878 131.306 612.984Q131.025 611.09 130.838 609.184Q130.65 607.278 130.556 605.366Q130.462 603.454 130.462 601.539L130.462 208.461Q130.462 206.546 130.556 204.634Q130.65 202.721 130.838 200.816Q131.025 198.91 131.306 197.016Q131.587 195.122 131.961 193.244Q132.334 191.366 132.8 189.509Q133.265 187.652 133.821 185.819Q134.377 183.987 135.022 182.184Q135.667 180.381 136.399 178.612Q137.132 176.843 137.951 175.112Q138.77 173.381 139.672 171.693Q140.575 170.004 141.559 168.362Q142.544 166.719 143.607 165.127Q144.671 163.535 145.812 161.997Q146.952 160.459 148.167 158.979Q149.382 157.499 150.668 156.08Q151.954 154.661 153.308 153.308Q154.661 151.954 156.08 150.668Q157.499 149.382 158.979 148.167Q160.459 146.952 161.997 145.812Q163.535 144.671 165.127 143.607Q166.719 142.544 168.362 141.559Q170.004 140.575 171.693 139.672Q173.381 138.77 175.112 137.951Q176.843 137.132 178.612 136.399Q180.381 135.667 182.184 135.022Q183.987 134.377 185.819 133.821Q187.652 133.265 189.509 132.8Q191.366 132.334 193.244 131.961Q195.122 131.587 197.016 131.306Q198.91 131.025 200.816 130.838Q202.721 130.65 204.634 130.556Q206.546 130.462 208.461 130.462L208.461 130.462Z" id="Rectangle-2" fill="none" fill-rule="evenodd" stroke="#FFFFFF" stroke-width="88" />
      <path d="M279.642 457.185L279.644 457.185Q280.41 457.185 281.175 457.222Q281.939 457.26 282.702 457.335Q283.464 457.41 284.221 457.522Q284.979 457.635 285.73 457.784Q286.481 457.934 287.224 458.12Q287.967 458.306 288.7 458.528Q289.432 458.75 290.154 459.008Q290.875 459.266 291.582 459.559Q292.29 459.853 292.982 460.18Q293.674 460.507 294.35 460.868Q295.025 461.229 295.682 461.623Q296.339 462.017 296.976 462.442Q297.612 462.868 298.227 463.324Q298.843 463.78 299.435 464.266Q300.027 464.752 300.594 465.266Q301.161 465.78 301.703 466.322Q302.245 466.864 302.759 467.431Q303.273 467.998 303.759 468.59Q304.245 469.182 304.701 469.798Q305.157 470.413 305.583 471.049Q306.008 471.686 306.402 472.343Q306.796 473 307.157 473.675Q307.518 474.351 307.845 475.043Q308.172 475.735 308.466 476.443Q308.759 477.15 309.017 477.871Q309.275 478.593 309.497 479.325Q309.719 480.058 309.905 480.801Q310.091 481.544 310.241 482.295Q310.39 483.046 310.503 483.804Q310.615 484.561 310.69 485.324Q310.765 486.086 310.803 486.851Q310.84 487.615 310.84 488.381L310.84 534.896Q310.84 535.662 310.803 536.427Q310.765 537.192 310.69 537.954Q310.615 538.716 310.503 539.473Q310.39 540.231 310.241 540.982Q310.091 541.733 309.905 542.476Q309.719 543.219 309.497 543.952Q309.275 544.685 309.017 545.406Q308.759 546.127 308.466 546.834Q308.172 547.542 307.845 548.234Q307.518 548.926 307.157 549.602Q306.796 550.277 306.402 550.934Q306.008 551.591 305.583 552.228Q305.157 552.864 304.701 553.48Q304.245 554.095 303.759 554.687Q303.273 555.279 302.759 555.846Q302.245 556.414 301.703 556.955Q301.161 557.497 300.594 558.011Q300.027 558.525 299.435 559.011Q298.843 559.497 298.227 559.953Q297.612 560.409 296.976 560.835Q296.339 561.26 295.682 561.654Q295.025 562.048 294.35 562.409Q293.674 562.77 292.982 563.097Q292.29 563.425 291.582 563.718Q290.875 564.011 290.154 564.269Q289.432 564.527 288.7 564.749Q287.967 564.971 287.224 565.157Q286.481 565.344 285.73 565.493Q284.979 565.642 284.221 565.755Q283.464 565.867 282.702 565.942Q281.939 566.017 281.175 566.055Q280.41 566.092 279.644 566.092L279.642 566.092Q278.876 566.092 278.111 566.055Q277.346 566.017 276.584 565.942Q275.822 565.867 275.064 565.755Q274.307 565.642 273.556 565.493Q272.805 565.344 272.062 565.157Q271.319 564.971 270.586 564.749Q269.853 564.527 269.132 564.269Q268.411 564.011 267.703 563.718Q266.996 563.425 266.303 563.097Q265.611 562.77 264.936 562.409Q264.26 562.048 263.604 561.654Q262.947 561.26 262.31 560.835Q261.673 560.409 261.058 559.953Q260.443 559.497 259.851 559.011Q259.259 558.525 258.691 558.011Q258.124 557.497 257.583 556.955Q257.041 556.414 256.527 555.846Q256.012 555.279 255.527 554.687Q255.041 554.095 254.585 553.48Q254.128 552.864 253.703 552.228Q253.277 551.591 252.884 550.934Q252.49 550.277 252.129 549.602Q251.768 548.926 251.44 548.234Q251.113 547.542 250.82 546.834Q250.527 546.127 250.269 545.406Q250.011 544.685 249.789 543.952Q249.566 543.219 249.38 542.476Q249.194 541.733 249.045 540.982Q248.895 540.231 248.783 539.473Q248.671 538.716 248.596 537.954Q248.52 537.192 248.483 536.427Q248.445 535.662 248.445 534.896L248.445 488.381Q248.445 487.615 248.483 486.851Q248.52 486.086 248.596 485.324Q248.671 484.561 248.783 483.804Q248.895 483.046 249.045 482.295Q249.194 481.544 249.38 480.801Q249.566 480.058 249.789 479.325Q250.011 478.593 250.269 477.871Q250.527 477.15 250.82 476.443Q251.113 475.735 251.441 475.043Q251.768 474.351 252.129 473.675Q252.49 473 252.884 472.343Q253.277 471.686 253.703 471.049Q254.128 470.413 254.585 469.798Q255.041 469.182 255.527 468.59Q256.012 467.998 256.527 467.431Q257.041 466.864 257.583 466.322Q258.124 465.78 258.691 465.266Q259.259 464.752 259.851 464.266Q260.443 463.78 261.058 463.324Q261.673 462.868 262.31 462.442Q262.947 462.017 263.604 461.623Q264.26 461.229 264.936 460.868Q265.611 460.507 266.303 460.18Q266.996 459.853 267.703 459.559Q268.411 459.266 269.132 459.008Q269.853 458.75 270.586 458.528Q271.319 458.306 272.062 458.12Q272.805 457.934 273.556 457.784Q274.307 457.635 275.064 457.522Q275.822 457.41 276.584 457.335Q277.346 457.26 278.111 457.222Q278.876 457.185 279.642 457.185Z" id="Rectangle-3" fill="#FFFFFF" fill-rule="evenodd" stroke="none" />
      <path d="M405.566 457.185L405.568 457.185Q406.334 457.185 407.099 457.222Q407.864 457.26 408.626 457.335Q409.388 457.41 410.146 457.522Q410.903 457.635 411.654 457.784Q412.406 457.934 413.148 458.12Q413.891 458.306 414.624 458.528Q415.357 458.75 416.078 459.008Q416.799 459.266 417.507 459.559Q418.214 459.853 418.907 460.18Q419.599 460.507 420.274 460.868Q420.95 461.229 421.607 461.623Q422.263 462.017 422.9 462.442Q423.537 462.868 424.152 463.324Q424.767 463.78 425.359 464.266Q425.951 464.752 426.519 465.266Q427.086 465.78 427.628 466.322Q428.169 466.864 428.683 467.431Q429.198 467.998 429.684 468.59Q430.169 469.182 430.626 469.798Q431.082 470.413 431.507 471.049Q431.933 471.686 432.326 472.343Q432.72 473 433.081 473.675Q433.442 474.351 433.77 475.043Q434.097 475.735 434.39 476.443Q434.683 477.15 434.941 477.871Q435.199 478.593 435.422 479.325Q435.644 480.058 435.83 480.801Q436.016 481.544 436.165 482.295Q436.315 483.046 436.427 483.804Q436.54 484.561 436.615 485.324Q436.69 486.086 436.727 486.851Q436.765 487.615 436.765 488.381L436.765 534.896Q436.765 535.662 436.727 536.427Q436.69 537.192 436.615 537.954Q436.54 538.716 436.427 539.473Q436.315 540.231 436.165 540.982Q436.016 541.733 435.83 542.476Q435.644 543.219 435.422 543.952Q435.199 544.685 434.941 545.406Q434.683 546.127 434.39 546.834Q434.097 547.542 433.77 548.234Q433.442 548.926 433.081 549.602Q432.72 550.277 432.326 550.934Q431.933 551.591 431.507 552.228Q431.082 552.864 430.626 553.48Q430.169 554.095 429.684 554.687Q429.198 555.279 428.683 555.846Q428.169 556.414 427.628 556.955Q427.086 557.497 426.519 558.011Q425.951 558.525 425.359 559.011Q424.767 559.497 424.152 559.953Q423.537 560.409 422.9 560.835Q422.263 561.26 421.607 561.654Q420.95 562.048 420.274 562.409Q419.599 562.77 418.907 563.097Q418.214 563.425 417.507 563.718Q416.799 564.011 416.078 564.269Q415.357 564.527 414.624 564.749Q413.891 564.971 413.148 565.157Q412.406 565.344 411.654 565.493Q410.903 565.642 410.146 565.755Q409.388 565.867 408.626 565.942Q407.864 566.017 407.099 566.055Q406.334 566.092 405.568 566.092L405.566 566.092Q404.8 566.092 404.036 566.055Q403.271 566.017 402.509 565.942Q401.746 565.867 400.989 565.755Q400.231 565.642 399.48 565.493Q398.729 565.344 397.986 565.157Q397.243 564.971 396.51 564.749Q395.778 564.527 395.057 564.269Q394.335 564.011 393.628 563.718Q392.92 563.425 392.228 563.097Q391.536 562.77 390.86 562.409Q390.185 562.048 389.528 561.654Q388.871 561.26 388.234 560.835Q387.598 560.409 386.983 559.953Q386.367 559.497 385.776 559.011Q385.184 558.525 384.616 558.011Q384.049 557.497 383.507 556.955Q382.966 556.414 382.451 555.846Q381.937 555.279 381.451 554.687Q380.965 554.095 380.509 553.48Q380.053 552.864 379.627 552.228Q379.202 551.591 378.808 550.934Q378.414 550.277 378.053 549.602Q377.692 548.926 377.365 548.234Q377.038 547.542 376.745 546.834Q376.451 546.127 376.193 545.406Q375.935 544.685 375.713 543.952Q375.491 543.219 375.305 542.476Q375.119 541.733 374.969 540.982Q374.82 540.231 374.708 539.473Q374.595 538.716 374.52 537.954Q374.445 537.192 374.407 536.427Q374.37 535.662 374.37 534.896L374.37 488.381Q374.37 487.615 374.407 486.851Q374.445 486.086 374.52 485.324Q374.595 484.561 374.707 483.804Q374.82 483.046 374.969 482.295Q375.119 481.544 375.305 480.801Q375.491 480.058 375.713 479.325Q375.935 478.593 376.193 477.871Q376.451 477.15 376.745 476.443Q377.038 475.735 377.365 475.043Q377.692 474.351 378.053 473.675Q378.414 473 378.808 472.343Q379.202 471.686 379.627 471.049Q380.053 470.413 380.509 469.798Q380.965 469.182 381.451 468.59Q381.937 467.998 382.451 467.431Q382.966 466.864 383.507 466.322Q384.049 465.78 384.616 465.266Q385.184 464.752 385.776 464.266Q386.367 463.78 386.983 463.324Q387.598 462.868 388.234 462.442Q388.871 462.017 389.528 461.623Q390.185 461.229 390.86 460.868Q391.536 460.507 392.228 460.18Q392.92 459.853 393.628 459.559Q394.336 459.266 395.057 459.008Q395.778 458.75 396.51 458.528Q397.243 458.306 397.986 458.12Q398.729 457.934 399.48 457.784Q400.231 457.635 400.989 457.522Q401.746 457.41 402.509 457.335Q403.271 457.26 404.036 457.222Q404.8 457.185 405.566 457.185Z" id="Rectangle-3-Copy" fill="#FFFFFF" fill-rule="evenodd" stroke="none" />
      <path d="M531.49 243.907L531.492 243.907Q532.258 243.907 533.023 243.945Q533.788 243.983 534.55 244.058Q535.312 244.133 536.07 244.245Q536.827 244.357 537.578 244.507Q538.33 244.656 539.072 244.842Q539.815 245.028 540.548 245.251Q541.281 245.473 542.002 245.731Q542.723 245.989 543.431 246.282Q544.138 246.575 544.831 246.903Q545.523 247.23 546.198 247.591Q546.874 247.952 547.531 248.346Q548.187 248.74 548.824 249.165Q549.461 249.59 550.076 250.047Q550.691 250.503 551.283 250.989Q551.875 251.475 552.443 251.989Q553.01 252.503 553.552 253.045Q554.093 253.586 554.607 254.154Q555.122 254.721 555.607 255.313Q556.093 255.905 556.55 256.52Q557.006 257.135 557.431 257.772Q557.857 258.409 558.25 259.066Q558.644 259.723 559.005 260.398Q559.366 261.073 559.694 261.766Q560.021 262.458 560.314 263.166Q560.607 263.873 560.865 264.594Q561.123 265.315 561.346 266.048Q561.568 266.781 561.754 267.524Q561.94 268.267 562.089 269.018Q562.239 269.769 562.351 270.526Q562.464 271.284 562.539 272.046Q562.614 272.808 562.651 273.573Q562.689 274.338 562.689 275.104L562.689 534.896Q562.689 535.662 562.651 536.427Q562.614 537.192 562.539 537.954Q562.464 538.716 562.351 539.473Q562.239 540.231 562.089 540.982Q561.94 541.733 561.754 542.476Q561.568 543.219 561.346 543.952Q561.123 544.685 560.865 545.406Q560.607 546.127 560.314 546.834Q560.021 547.542 559.694 548.234Q559.366 548.926 559.005 549.602Q558.644 550.277 558.25 550.934Q557.857 551.591 557.431 552.228Q557.006 552.864 556.55 553.48Q556.093 554.095 555.607 554.687Q555.122 555.279 554.607 555.846Q554.093 556.414 553.552 556.955Q553.01 557.497 552.443 558.011Q551.875 558.525 551.283 559.011Q550.691 559.497 550.076 559.953Q549.461 560.409 548.824 560.835Q548.187 561.26 547.531 561.654Q546.874 562.048 546.198 562.409Q545.523 562.77 544.831 563.097Q544.138 563.425 543.431 563.718Q542.723 564.011 542.002 564.269Q541.281 564.527 540.548 564.749Q539.815 564.971 539.072 565.157Q538.33 565.344 537.578 565.493Q536.827 565.642 536.07 565.755Q535.312 565.867 534.55 565.942Q533.788 566.017 533.023 566.055Q532.258 566.092 531.492 566.092L531.49 566.092Q530.725 566.092 529.96 566.055Q529.195 566.017 528.433 565.942Q527.67 565.867 526.913 565.755Q526.155 565.642 525.404 565.493Q524.653 565.344 523.91 565.157Q523.167 564.971 522.435 564.749Q521.702 564.527 520.981 564.269Q520.259 564.011 519.552 563.718Q518.844 563.425 518.152 563.097Q517.46 562.77 516.784 562.409Q516.109 562.048 515.452 561.654Q514.795 561.26 514.159 560.835Q513.522 560.409 512.907 559.953Q512.292 559.497 511.7 559.011Q511.108 558.525 510.54 558.011Q509.973 557.497 509.431 556.955Q508.89 556.414 508.375 555.846Q507.861 555.279 507.375 554.687Q506.889 554.095 506.433 553.48Q505.977 552.864 505.551 552.228Q505.126 551.591 504.732 550.934Q504.339 550.277 503.978 549.602Q503.617 548.926 503.289 548.234Q502.962 547.542 502.669 546.834Q502.375 546.127 502.118 545.406Q501.86 544.685 501.637 543.952Q501.415 543.219 501.229 542.476Q501.043 541.733 500.893 540.982Q500.744 540.231 500.632 539.473Q500.519 538.716 500.444 537.954Q500.369 537.192 500.332 536.427Q500.294 535.662 500.294 534.896L500.294 275.104Q500.294 274.338 500.332 273.573Q500.369 272.808 500.444 272.046Q500.519 271.284 500.632 270.526Q500.744 269.769 500.893 269.018Q501.043 268.267 501.229 267.524Q501.415 266.781 501.637 266.048Q501.86 265.315 502.118 264.594Q502.375 263.873 502.669 263.166Q502.962 262.458 503.289 261.766Q503.617 261.073 503.978 260.398Q504.339 259.723 504.732 259.066Q505.126 258.409 505.551 257.772Q505.977 257.135 506.433 256.52Q506.889 255.905 507.375 255.313Q507.861 254.721 508.375 254.154Q508.89 253.586 509.431 253.045Q509.973 252.503 510.54 251.989Q511.108 251.475 511.7 250.989Q512.292 250.503 512.907 250.047Q513.522 249.59 514.159 249.165Q514.795 248.74 515.452 248.346Q516.109 247.952 516.784 247.591Q517.46 247.23 518.152 246.903Q518.844 246.575 519.552 246.282Q520.26 245.989 520.981 245.731Q521.702 245.473 522.435 245.251Q523.167 245.028 523.91 244.842Q524.653 244.656 525.404 244.507Q526.155 244.357 526.913 244.245Q527.67 244.133 528.433 244.058Q529.195 243.983 529.96 243.945Q530.725 243.907 531.49 243.907Z" id="Rectangle-3-Copy-2" fill="#FFFFFF" fill-rule="evenodd" stroke="none" />
      <path d="M282.432 243.891L402.753 243.891Q403.588 243.891 404.421 243.932Q405.255 243.973 406.085 244.055Q406.916 244.137 407.742 244.259Q408.567 244.381 409.386 244.544Q410.204 244.707 411.014 244.91Q411.824 245.113 412.622 245.355Q413.421 245.597 414.207 245.878Q414.993 246.16 415.764 246.479Q416.535 246.798 417.289 247.155Q418.044 247.512 418.78 247.906Q419.516 248.299 420.232 248.728Q420.948 249.157 421.642 249.621Q422.336 250.085 423.006 250.582Q423.676 251.079 424.322 251.608Q424.967 252.138 425.585 252.698Q426.204 253.259 426.794 253.849Q427.384 254.439 427.945 255.058Q428.505 255.676 429.035 256.321Q429.564 256.966 430.061 257.637Q430.558 258.307 431.022 259.001Q431.486 259.695 431.915 260.411Q432.344 261.127 432.737 261.863Q433.131 262.599 433.488 263.354Q433.844 264.108 434.164 264.879Q434.483 265.65 434.764 266.436Q435.046 267.222 435.288 268.021Q435.53 268.819 435.733 269.629Q435.936 270.439 436.099 271.257Q436.261 272.076 436.384 272.901Q436.506 273.727 436.588 274.557Q436.67 275.388 436.711 276.222Q436.752 277.055 436.752 277.89L436.752 398.211Q436.752 399.046 436.711 399.88Q436.67 400.713 436.588 401.544Q436.506 402.374 436.384 403.2Q436.261 404.026 436.099 404.844Q435.936 405.663 435.733 406.472Q435.53 407.282 435.288 408.081Q435.046 408.879 434.764 409.665Q434.483 410.451 434.164 411.222Q433.844 411.993 433.488 412.748Q433.131 413.502 432.737 414.238Q432.344 414.974 431.915 415.69Q431.486 416.406 431.022 417.1Q430.558 417.794 430.061 418.464Q429.564 419.135 429.035 419.78Q428.505 420.425 427.945 421.044Q427.384 421.662 426.794 422.252Q426.204 422.842 425.585 423.403Q424.967 423.963 424.322 424.493Q423.676 425.022 423.006 425.52Q422.336 426.017 421.642 426.48Q420.948 426.944 420.232 427.373Q419.516 427.802 418.78 428.196Q418.044 428.589 417.289 428.946Q416.535 429.303 415.764 429.622Q414.993 429.942 414.207 430.223Q413.421 430.504 412.622 430.746Q411.824 430.989 411.014 431.191Q410.204 431.394 409.386 431.557Q408.567 431.72 407.742 431.842Q406.916 431.965 406.085 432.047Q405.255 432.128 404.421 432.169Q403.588 432.21 402.753 432.21L282.432 432.21Q281.597 432.21 280.763 432.169Q279.93 432.128 279.099 432.047Q278.268 431.965 277.443 431.842Q276.617 431.72 275.799 431.557Q274.98 431.394 274.171 431.191Q273.361 430.989 272.562 430.746Q271.764 430.504 270.978 430.223Q270.192 429.942 269.421 429.622Q268.65 429.303 267.895 428.946Q267.141 428.589 266.405 428.196Q265.668 427.802 264.953 427.373Q264.237 426.944 263.543 426.48Q262.849 426.017 262.178 425.52Q261.508 425.022 260.863 424.493Q260.218 423.963 259.599 423.403Q258.981 422.842 258.391 422.252Q257.801 421.662 257.24 421.044Q256.679 420.425 256.15 419.78Q255.621 419.135 255.123 418.464Q254.626 417.794 254.162 417.1Q253.699 416.406 253.27 415.69Q252.841 414.974 252.447 414.238Q252.054 413.502 251.697 412.748Q251.34 411.993 251.021 411.222Q250.701 410.451 250.42 409.665Q250.139 408.879 249.897 408.081Q249.654 407.282 249.451 406.472Q249.249 405.663 249.086 404.844Q248.923 404.026 248.801 403.2Q248.678 402.374 248.596 401.544Q248.514 400.713 248.474 399.88Q248.433 399.046 248.433 398.211L248.433 277.89Q248.433 277.055 248.474 276.222Q248.514 275.388 248.596 274.557Q248.678 273.727 248.801 272.901Q248.923 272.076 249.086 271.257Q249.249 270.439 249.451 269.629Q249.654 268.819 249.897 268.021Q250.139 267.222 250.42 266.436Q250.701 265.65 251.021 264.879Q251.34 264.108 251.697 263.354Q252.054 262.599 252.447 261.863Q252.841 261.127 253.27 260.411Q253.699 259.695 254.162 259.001Q254.626 258.307 255.123 257.637Q255.621 256.966 256.15 256.321Q256.679 255.676 257.24 255.058Q257.801 254.439 258.391 253.849Q258.981 253.259 259.599 252.698Q260.218 252.138 260.863 251.608Q261.508 251.079 262.178 250.582Q262.849 250.085 263.543 249.621Q264.237 249.157 264.953 248.728Q265.668 248.299 266.405 247.906Q267.141 247.512 267.895 247.155Q268.65 246.798 269.421 246.479Q270.192 246.16 270.978 245.878Q271.764 245.597 272.562 245.355Q273.361 245.113 274.171 244.91Q274.98 244.707 275.799 244.544Q276.617 244.381 277.443 244.259Q278.268 244.137 279.099 244.055Q279.93 243.973 280.763 243.932Q281.597 243.891 282.432 243.891Z" id="Rectangle-4" fill="#FFFFFF" fill-rule="evenodd" stroke="none" />
    </g>
  </g>
</svg>