<?xml version="1.0" encoding="utf-8"?>
<svg width="1000px" height="1000px" viewBox="0 0 1000 1000" version="1.1" xmlns:xlink="http://www.w3.org/1999/xlink" xmlns="http://www.w3.org/2000/svg">
  <defs>
    <linearGradient x1="0.5" y1="0" x2="0.5" y2="1" id="gradient_1">
      <stop offset="0%" stop-color="#4728FF" />
      <stop offset="100%" stop-color="#21D0E0" />
    </linearGradient>
    <linearGradient x1="1" y1="0.5" x2="-2.1855694E-08" y2="0.49999997" id="gradient_2">
      <stop offset="0%" stop-color="#4728FF" />
      <stop offset="100%" stop-color="#21D0E0" />
    </linearGradient>
    <filter filterUnits="userSpaceOnUse" color-interpolation-filters="sRGB" id="filter_1">
      <feFlood flood-opacity="0" result="BackgroundImageFix" />
      <feColorMatrix in="SourceAlpha" type="matrix" values="0 0 0 0 0 0 0 0 0 0 0 0 0 0 0 0 0 0 127 0" />
      <feMorphology radius="1" operator="dilate" in="SourceAlpha" result="effect0_dropShadow" />
      <feOffset dx="0" dy="2" />
      <feGaussianBlur stdDeviation="10" />
      <feColorMatrix type="matrix" values="0 0 0 0 0.39215687 0 0 0 0 0.39215687 0 0 0 0 0.39215687 0 0 0 0.49803922 0" />
      <feBlend mode="normal" in2="BackgroundImageFix" result="effect0_dropShadow" />
      <feBlend mode="normal" in="SourceGraphic" in2="effect0_dropShadow" result="shape" />
    </filter>
    <rect width="1000" height="1000" id="artboard_1" />
    <clipPath id="clip_1">
      <use xlink:href="#artboard_1" clip-rule="evenodd" />
    </clipPath>
  </defs>
  <g id="Logo" clip-path="url(#clip_1)">
    <g id="Group-Copy" transform="translate(213 62.00026)">
      <path d="M0.00012207 221.046C140.438 98.9657 353.25 113.847 475.331 254.285C597.411 394.722 582.53 607.535 442.092 729.615" id="Ellipse" fill="none" fill-rule="evenodd" stroke="url(#gradient_1)" stroke-width="111" stroke-linecap="round" stroke-linejoin="round" filter="url(#filter_1)" />
      <path d="M369.697 516.315L142.676 641.304Q141.881 641.742 141.059 642.127Q140.237 642.513 139.392 642.844Q138.547 643.175 137.682 643.451Q136.817 643.727 135.937 643.947Q135.056 644.166 134.163 644.328Q133.27 644.489 132.368 644.593Q131.466 644.697 130.559 644.742Q129.653 644.787 128.745 644.773Q127.838 644.759 126.933 644.686Q126.028 644.614 125.13 644.483Q124.232 644.352 123.344 644.163Q122.456 643.974 121.582 643.728Q120.709 643.482 119.853 643.18Q118.997 642.877 118.162 642.521Q117.328 642.164 116.518 641.753Q115.708 641.343 114.927 640.881Q114.145 640.419 113.396 639.908Q112.646 639.397 111.93 638.838Q111.215 638.279 110.538 637.675Q109.86 637.071 109.223 636.424Q108.587 635.777 107.993 635.09Q107.399 634.404 106.851 633.68Q106.303 632.957 105.803 632.199Q105.303 631.441 104.853 630.653Q104.404 629.865 104.006 629.049Q103.608 628.233 103.264 627.393Q102.92 626.553 102.631 625.693Q102.341 624.832 102.109 623.955Q101.876 623.078 101.701 622.187Q101.525 621.296 101.408 620.396Q101.291 619.496 101.232 618.59Q101.173 617.685 101.173 616.777L101.173 366.798Q101.173 365.891 101.232 364.985Q101.291 364.079 101.408 363.179Q101.525 362.279 101.701 361.388Q101.876 360.498 102.109 359.621Q102.341 358.743 102.631 357.883Q102.92 357.022 103.264 356.182Q103.608 355.342 104.006 354.527Q104.404 353.711 104.853 352.922Q105.303 352.134 105.803 351.376Q106.303 350.619 106.851 349.895Q107.399 349.172 107.993 348.485Q108.587 347.798 109.223 347.152Q109.86 346.505 110.538 345.901Q111.215 345.297 111.93 344.738Q112.646 344.179 113.396 343.667Q114.145 343.156 114.927 342.694Q115.708 342.232 116.518 341.822Q117.328 341.412 118.162 341.055Q118.997 340.698 119.853 340.396Q120.709 340.094 121.582 339.848Q122.456 339.602 123.344 339.413Q124.232 339.224 125.13 339.093Q126.028 338.962 126.933 338.889Q127.838 338.817 128.745 338.803Q129.653 338.789 130.559 338.834Q131.466 338.879 132.368 338.982Q133.27 339.086 134.163 339.248Q135.056 339.41 135.937 339.629Q136.817 339.848 137.682 340.124Q138.547 340.4 139.392 340.731Q140.237 341.063 141.059 341.448Q141.881 341.833 142.676 342.271L369.697 467.26Q370.516 467.711 371.302 468.215Q372.089 468.719 372.84 469.275Q373.592 469.831 374.304 470.435Q375.017 471.039 375.688 471.69Q376.358 472.34 376.984 473.034Q377.61 473.728 378.188 474.462Q378.766 475.196 379.294 475.967Q379.822 476.738 380.298 477.543Q380.773 478.347 381.194 479.181Q381.614 480.016 381.979 480.876Q382.343 481.737 382.649 482.619Q382.955 483.502 383.201 484.404Q383.448 485.305 383.633 486.221Q383.819 487.136 383.943 488.063Q384.068 488.989 384.13 489.921Q384.192 490.853 384.192 491.788Q384.192 492.722 384.13 493.654Q384.068 494.587 383.943 495.513Q383.819 496.439 383.633 497.355Q383.447 498.27 383.201 499.172Q382.955 500.073 382.649 500.956Q382.343 501.839 381.979 502.699Q381.614 503.56 381.194 504.394Q380.773 505.228 380.298 506.033Q379.822 506.837 379.294 507.608Q378.766 508.379 378.188 509.113Q377.61 509.847 376.984 510.541Q376.358 511.235 375.688 511.885Q375.017 512.536 374.304 513.14Q373.592 513.745 372.84 514.3Q372.089 514.856 371.302 515.36Q370.516 515.864 369.697 516.315Z" id="Triangle" fill="url(#gradient_2)" fill-rule="evenodd" stroke="none" filter="url(#filter_1)" />
    </g>
  </g>
</svg>