<?xml version="1.0" encoding="utf-8"?>
<svg width="1000px" height="1000px" viewBox="0 0 1000 1000" version="1.1" xmlns:xlink="http://www.w3.org/1999/xlink" xmlns="http://www.w3.org/2000/svg">
  <defs>
    <linearGradient x1="0" y1="0" x2="1" y2="1" id="gradient_1">
      <stop offset="0%" stop-color="#FB00FF" />
      <stop offset="100%" stop-color="#5100FF" />
    </linearGradient>
    <rect width="1000" height="1000" id="artboard_1" />
    <clipPath id="clip_1">
      <use xlink:href="#artboard_1" clip-rule="evenodd" />
    </clipPath>
  </defs>
  <g id="Full-HD-Copy-2" clip-path="url(#clip_1)">
    <g id="Group" transform="translate(120.13452 129.31955)">
      <path d="M300.466 456.842L210.268 276.446L210.268 275.176L4.01171 687.688Q3.74159 688.228 3.48878 688.777Q3.23596 689.325 3.00071 689.882Q2.76546 690.438 2.54801 691.001Q2.33055 691.565 2.13112 692.135Q1.93169 692.705 1.75048 693.281Q1.56927 693.858 1.40646 694.439Q1.24365 695.021 1.09942 695.607Q0.955177 696.194 0.829654 696.785Q0.70413 697.376 0.597449 697.97Q0.490767 698.565 0.403034 699.162Q0.315302 699.76 0.246607 700.36Q0.177912 700.96 0.128325 701.562Q0.0787376 702.164 0.0483077 702.767Q0.0178777 703.37 0.00663596 703.974Q-0.0046058 704.578 0.00335196 705.182Q0.0113097 705.786 0.038459 706.389Q0.0656082 706.993 0.111922 707.595Q0.158235 708.198 0.223665 708.798Q0.289096 709.398 0.373578 709.996Q0.458059 710.595 0.561507 711.19Q0.664954 711.785 0.787263 712.376Q0.909572 712.968 1.05062 713.555Q1.19166 714.142 1.35131 714.725Q1.51095 715.307 1.68902 715.885Q1.8671 716.462 2.06343 717.033Q2.25976 717.604 2.47414 718.169Q2.68853 718.734 2.92075 719.291Q3.15298 719.849 3.4028 720.398Q3.65263 720.948 3.91981 721.49Q4.18699 722.032 4.47125 722.565Q4.75552 723.098 5.05657 723.621Q5.35763 724.145 5.67518 724.659Q5.99272 725.173 6.32644 725.676Q6.66016 726.18 7.00971 726.672Q7.35926 727.165 7.72429 727.646Q8.08931 728.127 8.46945 728.597Q8.84959 729.066 9.24446 729.523Q9.63932 729.98 10.0485 730.424Q10.4577 730.869 10.8808 731.3Q11.3039 731.731 11.7405 732.148Q12.1771 732.566 12.6267 732.969Q13.0764 733.372 13.5386 733.761Q14.0008 734.15 14.4752 734.524Q14.9496 734.898 15.4355 735.256Q15.9215 735.615 16.4187 735.958Q16.9158 736.301 17.4237 736.628Q17.9315 736.955 18.4494 737.266Q18.9673 737.577 19.4949 737.871Q20.0224 738.165 20.5591 738.442Q21.0957 738.719 21.6409 738.979Q22.1861 739.239 22.7392 739.482Q23.2924 739.724 23.853 739.949Q24.4136 740.174 24.9811 740.381Q25.5485 740.588 26.1223 740.777Q26.696 740.966 27.2755 741.136Q27.8549 741.307 28.4395 741.458Q29.0241 741.61 29.6132 741.744Q30.2023 741.877 30.7954 741.992Q31.3885 742.106 31.9849 742.202Q32.5813 742.297 33.1804 742.374Q33.7795 742.45 34.3808 742.508Q34.9821 742.566 35.5848 742.604Q36.1876 742.642 36.7913 742.661Q37.395 742.681 37.9991 742.681L721.732 742.681Q722.336 742.681 722.94 742.661Q723.543 742.642 724.146 742.604Q724.749 742.566 725.35 742.508Q725.952 742.45 726.551 742.374Q727.15 742.297 727.746 742.202Q728.343 742.106 728.936 741.992Q729.529 741.877 730.118 741.744Q730.707 741.61 731.292 741.458Q731.876 741.307 732.456 741.136Q733.035 740.966 733.609 740.777Q734.183 740.588 734.75 740.381Q735.318 740.174 735.878 739.949Q736.439 739.724 736.992 739.482Q737.545 739.239 738.09 738.979Q738.635 738.719 739.172 738.442Q739.709 738.165 740.236 737.871Q740.764 737.577 741.282 737.266Q741.8 736.955 742.307 736.628Q742.815 736.301 743.312 735.958Q743.81 735.615 744.295 735.256Q744.782 734.898 745.256 734.524Q745.73 734.15 746.193 733.761Q746.655 733.372 747.104 732.969Q747.554 732.566 747.991 732.148Q748.427 731.731 748.85 731.3Q749.273 730.869 749.682 730.424Q750.092 729.98 750.487 729.523Q750.881 729.066 751.262 728.596Q751.642 728.127 752.007 727.646Q752.372 727.165 752.721 726.672Q753.071 726.18 753.405 725.676Q753.738 725.173 754.056 724.659Q754.373 724.145 754.674 723.621Q754.976 723.098 755.26 722.565Q755.544 722.032 755.811 721.49Q756.078 720.948 756.328 720.399Q756.578 719.849 756.81 719.291Q757.042 718.734 757.257 718.169Q757.471 717.604 757.668 717.033Q757.864 716.462 758.042 715.885Q758.22 715.307 758.38 714.725Q758.539 714.142 758.68 713.555Q758.821 712.968 758.944 712.376Q759.066 711.785 759.169 711.19Q759.273 710.595 759.357 709.997Q759.442 709.398 759.507 708.798Q759.573 708.198 759.619 707.595Q759.665 706.993 759.693 706.39Q759.72 705.786 759.728 705.182Q759.736 704.578 759.724 703.974Q759.713 703.37 759.683 702.767Q759.652 702.164 759.603 701.562Q759.553 700.96 759.484 700.36Q759.416 699.76 759.328 699.162Q759.24 698.565 759.134 697.97Q759.027 697.376 758.901 696.785Q758.776 696.194 758.632 695.607Q758.487 695.021 758.325 694.439Q758.162 693.858 757.981 693.281Q757.799 692.705 757.6 692.135Q757.4 691.565 757.183 691.001Q756.966 690.438 756.73 689.882Q756.495 689.325 756.242 688.777Q755.989 688.228 755.719 687.688L549.463 275.175L549.463 276.446L459.265 456.842C459.265 456.842 434.306 502.595 380.501 502.576C326.695 502.557 300.466 456.842 300.466 456.842Z" id="Triangle-Difference" fill="url(#gradient_1)" fill-rule="evenodd" stroke="none" />
      <path d="M497.06 187.688L413.719 21.0053Q413.425 20.4173 413.111 19.8398Q412.797 19.2623 412.463 18.6961Q412.129 18.1298 411.775 17.5754Q411.422 17.021 411.05 16.4792Q410.677 15.9373 410.287 15.4087Q409.896 14.8801 409.487 14.3653Q409.078 13.8505 408.652 13.3502Q408.225 12.8498 407.782 12.3645Q407.338 11.8792 406.878 11.4096Q406.418 10.9399 405.942 10.4865Q405.466 10.033 404.975 9.59627Q404.483 9.15954 403.977 8.74008Q403.471 8.32061 402.95 7.9189Q402.43 7.5172 401.896 7.13373Q401.362 6.75027 400.815 6.38551Q400.268 6.02074 399.709 5.67512Q399.15 5.32949 398.579 5.00342Q398.008 4.67735 397.426 4.37121Q396.844 4.06508 396.252 3.77926Q395.66 3.49344 395.059 3.22826Q394.457 2.96309 393.847 2.71889Q393.236 2.47468 392.618 2.25173Q392 2.02879 391.374 1.82737Q390.748 1.62595 390.116 1.4463Q389.483 1.26665 388.845 1.10899Q388.207 0.951319 387.563 0.815823Q386.92 0.680328 386.272 0.567166Q385.625 0.454005 384.974 0.363312Q384.323 0.27262 383.669 0.204506Q383.015 0.136392 382.359 0.0909368Q381.703 0.0454819 381.046 0.0227409Q380.389 -7.37878e-08 379.732 0Q379.074 1.47576e-07 378.417 0.0227414Q377.76 0.0454826 377.104 0.0909376Q376.449 0.136393 375.795 0.204507Q375.141 0.272622 374.49 0.363314Q373.839 0.454006 373.191 0.567168Q372.543 0.68033 371.9 0.815826Q371.257 0.951321 370.618 1.10899Q369.98 1.26666 369.348 1.44631Q368.715 1.62596 368.09 1.82738Q367.464 2.02879 366.845 2.25174Q366.227 2.47468 365.617 2.71889Q365.006 2.96309 364.405 3.22827Q363.803 3.49344 363.211 3.77926Q362.619 4.06509 362.037 4.37122Q361.455 4.67735 360.885 5.00342Q360.314 5.3295 359.754 5.67512Q359.195 6.02075 358.648 6.38551Q358.101 6.75027 357.567 7.13374Q357.033 7.5172 356.513 7.91891Q355.992 8.32061 355.486 8.74008Q354.98 9.15955 354.489 9.59628Q353.997 10.033 353.521 10.4865Q353.045 10.9399 352.585 11.4096Q352.125 11.8792 351.682 12.3645Q351.238 12.8498 350.812 13.3502Q350.385 13.8505 349.977 14.3653Q349.568 14.8801 349.177 15.4087Q348.786 15.9374 348.414 16.4792Q348.041 17.021 347.688 17.5754Q347.335 18.1298 347.001 18.6961Q346.667 19.2623 346.353 19.8398Q346.038 20.4173 345.744 21.0053L264.011 184.471Q263.785 184.821 263.565 185.175Q263.248 185.689 262.947 186.213Q262.646 186.736 262.362 187.269Q262.077 187.802 261.81 188.344Q261.543 188.886 261.293 189.436Q261.043 189.985 260.811 190.543Q260.579 191.101 260.365 191.665Q260.15 192.23 259.954 192.801Q259.757 193.372 259.579 193.95Q259.401 194.527 259.242 195.109Q259.082 195.692 258.941 196.279Q258.8 196.866 258.678 197.458Q258.555 198.049 258.452 198.645Q258.348 199.24 258.264 199.838Q258.179 200.436 258.114 201.036Q258.049 201.637 258.002 202.239Q257.956 202.841 257.929 203.445Q257.902 204.048 257.894 204.652Q257.886 205.256 257.897 205.86Q257.908 206.464 257.939 207.067Q257.969 207.67 258.019 208.272Q258.068 208.874 258.137 209.474Q258.206 210.074 258.293 210.672Q258.381 211.27 258.488 211.864Q258.594 212.459 258.72 213.049Q258.846 213.64 258.99 214.227Q259.134 214.813 259.297 215.395Q259.46 215.977 259.641 216.553Q259.822 217.129 260.021 217.699Q260.221 218.269 260.438 218.833Q260.656 219.396 260.891 219.953Q261.126 220.509 261.379 221.057Q261.632 221.606 261.902 222.146L345.244 388.83Q345.538 389.418 345.852 389.996Q346.166 390.573 346.5 391.139Q346.834 391.706 347.188 392.26Q347.541 392.814 347.913 393.356Q348.286 393.898 348.676 394.427Q349.067 394.955 349.476 395.47Q349.885 395.985 350.311 396.485Q350.738 396.986 351.181 397.471Q351.625 397.956 352.085 398.426Q352.545 398.895 353.021 399.349Q353.497 399.802 353.988 400.239Q354.48 400.676 354.986 401.095Q355.492 401.515 356.013 401.917Q356.533 402.318 357.067 402.702Q357.601 403.085 358.148 403.45Q358.695 403.815 359.254 404.16Q359.813 404.506 360.384 404.832Q360.955 405.158 361.537 405.464Q362.119 405.77 362.711 406.056Q363.303 406.342 363.904 406.607Q364.506 406.872 365.116 407.117Q365.727 407.361 366.345 407.584Q366.963 407.807 367.589 408.008Q368.215 408.21 368.847 408.389Q369.48 408.569 370.118 408.726Q370.756 408.884 371.4 409.02Q372.043 409.155 372.69 409.268Q373.338 409.381 373.989 409.472Q374.64 409.563 375.294 409.631Q375.948 409.699 376.604 409.745Q377.26 409.79 377.917 409.813Q378.574 409.835 379.231 409.835Q379.889 409.835 380.546 409.813Q381.203 409.79 381.859 409.745Q382.514 409.699 383.168 409.631Q383.822 409.563 384.473 409.472Q385.124 409.381 385.772 409.268Q386.42 409.155 387.063 409.02Q387.706 408.884 388.345 408.726Q388.983 408.569 389.615 408.389Q390.248 408.209 390.873 408.008Q391.499 407.807 392.118 407.584Q392.736 407.361 393.346 407.117Q393.957 406.872 394.558 406.607Q395.16 406.342 395.752 406.056Q396.344 405.77 396.926 405.464Q397.508 405.158 398.078 404.832Q398.649 404.506 399.209 404.16Q399.768 403.815 400.315 403.45Q400.862 403.085 401.396 402.702Q401.93 402.318 402.45 401.917Q402.97 401.515 403.477 401.095Q403.983 400.676 404.474 400.239Q404.966 399.802 405.442 399.349Q405.918 398.895 406.378 398.426Q406.838 397.956 407.281 397.471Q407.725 396.986 408.151 396.485Q408.578 395.985 408.987 395.47Q409.395 394.955 409.786 394.427Q410.177 393.898 410.549 393.356Q410.922 392.814 411.275 392.26Q411.628 391.706 411.962 391.139Q412.296 390.573 412.611 389.996Q412.925 389.418 413.219 388.83L494.957 225.354Q495.181 225.009 495.397 224.659Q495.714 224.145 496.015 223.621Q496.316 223.098 496.601 222.565Q496.885 222.032 497.152 221.49Q497.419 220.948 497.669 220.398Q497.919 219.849 498.151 219.291Q498.383 218.733 498.598 218.169Q498.812 217.604 499.009 217.033Q499.205 216.462 499.383 215.884Q499.561 215.307 499.721 214.725Q499.88 214.142 500.021 213.555Q500.162 212.968 500.285 212.376Q500.407 211.785 500.51 211.189Q500.614 210.594 500.698 209.996Q500.783 209.398 500.848 208.798Q500.914 208.197 500.96 207.595Q501.006 206.993 501.033 206.389Q501.061 205.786 501.069 205.182Q501.077 204.578 501.065 203.974Q501.054 203.37 501.024 202.767Q500.993 202.164 500.944 201.562Q500.894 200.96 500.825 200.36Q500.757 199.76 500.669 199.162Q500.581 198.565 500.475 197.97Q500.368 197.375 500.242 196.785Q500.117 196.194 499.973 195.607Q499.828 195.021 499.666 194.439Q499.503 193.857 499.322 193.281Q499.14 192.705 498.941 192.135Q498.741 191.565 498.524 191.001Q498.307 190.438 498.071 189.881Q497.836 189.325 497.583 188.777Q497.33 188.228 497.06 187.688Z" id="Triangle-Copy-2-Union" fill="url(#gradient_1)" fill-rule="evenodd" stroke="none" />
    </g>
  </g>
</svg>