<?xml version="1.0" encoding="utf-8"?>
<svg width="1920px" height="1080px" viewBox="0 0 1920 1080" version="1.1" xmlns:xlink="http://www.w3.org/1999/xlink" xmlns="http://www.w3.org/2000/svg">
  <defs>
    <linearGradient x1="0" y1="0" x2="1" y2="1" id="gradient_1">
      <stop offset="0%" stop-color="#FB00FF" />
      <stop offset="100%" stop-color="#5100FF" />
    </linearGradient>
    <rect width="1920" height="1080" id="artboard_1" />
    <clipPath id="clip_1">
      <use xlink:href="#artboard_1" clip-rule="evenodd" />
    </clipPath>
  </defs>
  <g id="Full-HD-Copy" clip-path="url(#clip_1)">
    <g id="Group-3" transform="translate(244 260)">
      <g id="Group-2" transform="translate(692.03076 103.0614)">
        <g fill="url(#gradient_1)" stroke="none" id="Labs">
          <path d="M510.912 119.052Q529.056 119.052 544.464 127.404Q559.872 135.756 568.944 151.452Q578.016 167.148 578.016 188.46Q578.016 214.092 566.64 234.684Q555.264 255.276 535.68 266.94Q516.096 278.604 492.192 278.604Q474.048 278.604 460.8 272.268Q447.552 265.932 440.352 253.26L435.744 276.3L393.12 276.3L435.744 62.604L480.672 62.604L466.272 134.604Q484.992 119.052 510.912 119.052ZM95.616 74.7L48.672 74.7L8.352 276.3L156.096 276.3L163.872 238.284L62.784 238.284L95.616 74.7ZM375.552 240.588Q370.368 242.892 362.592 242.892Q355.104 242.892 350.928 239.292Q346.752 235.692 346.752 228.204Q346.752 224.172 347.328 221.868L367.488 121.356L322.56 121.356L318.528 142.38Q303.84 119.052 268.128 119.052Q244.512 119.052 224.928 130.716Q205.344 142.38 193.968 162.972Q182.592 183.564 182.592 209.196Q182.592 230.508 191.664 246.204Q200.736 261.9 216 270.252Q231.264 278.604 249.408 278.604Q283.68 278.604 304.128 253.548Q308.16 265.356 318.96 271.98Q329.76 278.604 346.464 278.604Q359.424 278.604 370.944 274.86L375.552 240.588ZM610.128 274.14Q628.128 278.604 648.288 278.604Q682.848 278.604 704.592 264.492Q726.336 250.38 726.336 224.46Q726.336 210.06 718.56 201.708Q710.784 193.356 700.272 189.756Q689.76 186.156 673.344 182.988Q657.792 179.82 651.168 177.084Q644.544 174.348 644.544 168.3Q644.544 161.676 652.176 157.356Q659.808 153.036 674.496 153.036Q701.28 153.036 720.288 164.844L736.416 132.012Q725.76 125.964 710.496 122.508Q695.232 119.052 679.104 119.052Q644.256 119.052 622.8 133.452Q601.344 147.852 601.344 173.484Q601.344 188.172 609.264 196.668Q617.184 205.164 627.984 208.908Q638.784 212.652 655.488 215.82Q670.176 218.7 676.8 221.292Q683.424 223.884 683.424 229.644Q683.424 236.844 675.936 240.732Q668.448 244.62 653.184 244.62Q638.496 244.62 623.952 240.588Q609.408 236.556 599.328 229.932L582.048 262.476Q592.128 269.676 610.128 274.14ZM286.848 234.972Q276.48 241.452 263.232 241.452Q246.528 241.452 237.168 232.236Q227.808 223.02 227.808 207.18Q227.808 192.204 233.568 180.684Q239.328 169.164 249.696 162.684Q260.064 156.204 273.312 156.204Q290.016 156.204 299.376 165.42Q308.736 174.636 308.736 190.476Q308.736 205.452 302.976 216.972Q297.216 228.492 286.848 234.972ZM487.008 241.452Q500.256 241.452 510.624 234.972Q520.992 228.492 526.752 216.972Q532.512 205.452 532.512 190.476Q532.512 174.636 523.152 165.42Q513.792 156.204 497.088 156.204Q484.128 156.204 473.76 162.684Q463.392 169.164 457.632 180.684Q451.872 192.204 451.872 207.18Q451.872 223.02 461.088 232.236Q470.304 241.452 487.008 241.452Z" />
        </g>
      </g>
      <g id="Group">
        <path d="M231.515 333.061L160.515 191.061L160.515 190.061L4.01171 503.069Q3.74159 503.609 3.48878 504.158Q3.23596 504.706 3.00071 505.262Q2.76546 505.819 2.54801 506.382Q2.33055 506.946 2.13112 507.516Q1.93169 508.086 1.75048 508.662Q1.56927 509.238 1.40646 509.82Q1.24365 510.402 1.09942 510.988Q0.955177 511.575 0.829654 512.166Q0.70413 512.757 0.597449 513.351Q0.490767 513.946 0.403034 514.543Q0.315302 515.141 0.246607 515.741Q0.177912 516.341 0.128325 516.943Q0.0787376 517.545 0.0483077 518.148Q0.0178777 518.751 0.00663596 519.355Q-0.0046058 519.959 0.00335196 520.563Q0.0113097 521.167 0.038459 521.77Q0.0656082 522.374 0.111922 522.976Q0.158235 523.578 0.223665 524.179Q0.289096 524.779 0.373578 525.377Q0.458059 525.975 0.561507 526.57Q0.664954 527.166 0.787263 527.757Q0.909572 528.349 1.05062 528.936Q1.19166 529.523 1.35131 530.106Q1.51095 530.688 1.68902 531.265Q1.8671 531.843 2.06343 532.414Q2.25976 532.985 2.47414 533.55Q2.68853 534.114 2.92075 534.672Q3.15298 535.229 3.4028 535.779Q3.65263 536.329 3.91981 536.871Q4.18699 537.413 4.47125 537.946Q4.75552 538.479 5.05657 539.002Q5.35763 539.526 5.67518 540.04Q5.99272 540.554 6.32644 541.057Q6.66016 541.56 7.00971 542.053Q7.35926 542.546 7.72429 543.027Q8.08931 543.508 8.46945 543.977Q8.84959 544.447 9.24446 544.904Q9.63932 545.361 10.0485 545.805Q10.4577 546.25 10.8808 546.681Q11.3039 547.112 11.7405 547.529Q12.1771 547.946 12.6267 548.35Q13.0764 548.753 13.5386 549.142Q14.0008 549.531 14.4752 549.905Q14.9496 550.279 15.4355 550.637Q15.9215 550.996 16.4187 551.339Q16.9158 551.682 17.4237 552.009Q17.9315 552.336 18.4494 552.647Q18.9673 552.957 19.4949 553.252Q20.0224 553.546 20.5591 553.823Q21.0957 554.1 21.6409 554.36Q22.1861 554.62 22.7392 554.863Q23.2924 555.105 23.853 555.33Q24.4136 555.555 24.9811 555.762Q25.5485 555.969 26.1223 556.158Q26.696 556.346 27.2755 556.517Q27.8549 556.687 28.4395 556.839Q29.0241 556.991 29.6132 557.125Q30.2023 557.258 30.7954 557.372Q31.3885 557.487 31.9849 557.582Q32.5813 557.678 33.1804 557.755Q33.7795 557.831 34.3808 557.889Q34.9821 557.946 35.5848 557.985Q36.1876 558.023 36.7913 558.042Q37.395 558.061 37.9991 558.061L550.032 558.061Q550.636 558.061 551.24 558.042Q551.843 558.023 552.446 557.985Q553.049 557.946 553.65 557.889Q554.251 557.831 554.85 557.755Q555.45 557.678 556.046 557.583Q556.642 557.487 557.235 557.372Q557.829 557.258 558.418 557.125Q559.007 556.991 559.591 556.839Q560.176 556.687 560.755 556.517Q561.335 556.346 561.909 556.158Q562.482 555.969 563.05 555.762Q563.617 555.555 564.178 555.33Q564.739 555.105 565.292 554.863Q565.845 554.62 566.39 554.36Q566.935 554.1 567.472 553.823Q568.008 553.546 568.536 553.252Q569.064 552.957 569.581 552.647Q570.099 552.336 570.607 552.009Q571.115 551.682 571.612 551.339Q572.109 550.996 572.595 550.637Q573.081 550.279 573.556 549.905Q574.03 549.531 574.492 549.142Q574.955 548.753 575.404 548.35Q575.854 547.946 576.29 547.529Q576.727 547.112 577.15 546.681Q577.573 546.25 577.982 545.805Q578.392 545.361 578.786 544.904Q579.181 544.447 579.561 543.977Q579.942 543.508 580.307 543.027Q580.672 542.546 581.021 542.053Q581.371 541.56 581.704 541.057Q582.038 540.554 582.356 540.04Q582.673 539.526 582.974 539.002Q583.275 538.479 583.56 537.946Q583.844 537.413 584.111 536.871Q584.378 536.329 584.628 535.779Q584.878 535.229 585.11 534.672Q585.342 534.114 585.557 533.55Q585.771 532.985 585.967 532.414Q586.164 531.843 586.342 531.265Q586.52 530.688 586.68 530.106Q586.839 529.523 586.98 528.936Q587.121 528.349 587.244 527.757Q587.366 527.166 587.469 526.57Q587.573 525.975 587.657 525.377Q587.742 524.779 587.807 524.179Q587.873 523.578 587.919 522.976Q587.965 522.374 587.992 521.77Q588.02 521.167 588.028 520.563Q588.036 519.959 588.024 519.355Q588.013 518.751 587.983 518.148Q587.952 517.545 587.902 516.943Q587.853 516.341 587.784 515.741Q587.716 515.141 587.628 514.543Q587.54 513.946 587.433 513.351Q587.327 512.757 587.201 512.166Q587.076 511.575 586.931 510.988Q586.787 510.402 586.624 509.82Q586.462 509.238 586.28 508.662Q586.099 508.086 585.9 507.516Q585.7 506.946 585.483 506.382Q585.265 505.819 585.03 505.262Q584.795 504.706 584.542 504.158Q584.289 503.609 584.019 503.069L427.515 190.061L427.515 191.061L356.515 333.061C356.515 333.061 336.869 369.077 294.515 369.061C252.162 369.046 231.515 333.061 231.515 333.061Z" id="Triangle-Difference" fill="url(#gradient_1)" fill-rule="evenodd" stroke="none" />
        <path d="M379.958 125.915L327.504 21.0053Q327.21 20.4173 326.896 19.8398Q326.581 19.2623 326.247 18.6961Q325.913 18.1298 325.56 17.5754Q325.207 17.021 324.834 16.4792Q324.462 15.9374 324.071 15.4087Q323.68 14.8801 323.272 14.3653Q322.863 13.8505 322.436 13.3502Q322.01 12.8498 321.566 12.3645Q321.123 11.8793 320.663 11.4096Q320.203 10.9399 319.727 10.4865Q319.251 10.033 318.759 9.59628Q318.268 9.15956 317.762 8.74009Q317.256 8.32062 316.735 7.91891Q316.215 7.51721 315.681 7.13374Q315.147 6.75028 314.6 6.38552Q314.053 6.02075 313.494 5.67513Q312.934 5.3295 312.364 5.00343Q311.793 4.67736 311.211 4.37122Q310.629 4.06509 310.037 3.77927Q309.445 3.49345 308.843 3.22827Q308.242 2.9631 307.632 2.71889Q307.021 2.47469 306.403 2.25174Q305.784 2.0288 305.158 1.82738Q304.533 1.62596 303.9 1.44631Q303.268 1.26666 302.63 1.10899Q301.991 0.951327 301.348 0.815832Q300.705 0.680336 300.057 0.567175Q299.41 0.454013 298.758 0.363321Q298.107 0.272629 297.453 0.204514Q296.799 0.1364 296.144 0.0909449Q295.488 0.04549 294.831 0.022749Q294.174 7.90767e-06 293.516 7.90767e-06Q292.859 7.90767e-06 292.202 0.022749Q291.545 0.04549 290.889 0.0909449Q290.233 0.1364 289.579 0.204514Q288.925 0.272628 288.274 0.363321Q287.623 0.454013 286.976 0.567175Q286.328 0.680336 285.685 0.815832Q285.041 0.951327 284.403 1.10899Q283.765 1.26666 283.133 1.44631Q282.5 1.62596 281.874 1.82738Q281.249 2.0288 280.63 2.25174Q280.012 2.47469 279.401 2.71889Q278.791 2.9631 278.189 3.22827Q277.588 3.49345 276.996 3.77927Q276.404 4.06509 275.822 4.37122Q275.24 4.67735 274.669 5.00343Q274.098 5.3295 273.539 5.67513Q272.98 6.02075 272.433 6.38551Q271.886 6.75028 271.352 7.13374Q270.818 7.5172 270.298 7.91891Q269.777 8.32062 269.271 8.74008Q268.765 9.15955 268.273 9.59628Q267.782 10.033 267.306 10.4865Q266.83 10.9399 266.37 11.4096Q265.91 11.8792 265.466 12.3645Q265.023 12.8498 264.597 13.3502Q264.17 13.8505 263.761 14.3653Q263.352 14.8801 262.961 15.4087Q262.571 15.9374 262.198 16.4792Q261.826 17.021 261.473 17.5754Q261.119 18.1298 260.785 18.6961Q260.451 19.2623 260.137 19.8398Q259.823 20.4173 259.529 21.0053L207.167 125.729Q206.73 126.584 206.337 127.459Q205.944 128.335 205.595 129.229Q205.246 130.123 204.943 131.034Q204.64 131.945 204.384 132.87Q204.127 133.794 203.918 134.731Q203.708 135.668 203.546 136.614Q203.384 137.56 203.27 138.512Q203.156 139.465 203.09 140.423Q203.024 141.38 203.007 142.34Q202.989 143.3 203.02 144.259Q203.051 145.218 203.131 146.175Q203.21 147.131 203.338 148.082Q203.465 149.034 203.641 149.977Q203.816 150.921 204.039 151.854Q204.262 152.788 204.532 153.709Q204.802 154.63 205.118 155.536Q205.324 156.129 205.55 156.715Q206.228 158.472 207.077 160.153L259.528 265.056Q259.822 265.644 260.137 266.221Q260.451 266.799 260.785 267.365Q261.119 267.931 261.472 268.486Q261.825 269.04 262.198 269.582Q262.57 270.124 262.961 270.653Q263.352 271.181 263.76 271.696Q264.169 272.211 264.596 272.711Q265.022 273.211 265.466 273.697Q265.909 274.182 266.369 274.652Q266.829 275.121 267.305 275.575Q267.781 276.028 268.273 276.465Q268.764 276.902 269.27 277.321Q269.776 277.741 270.297 278.142Q270.817 278.544 271.351 278.928Q271.885 279.311 272.432 279.676Q272.979 280.041 273.538 280.386Q274.098 280.732 274.668 281.058Q275.239 281.384 275.821 281.69Q276.403 281.996 276.995 282.282Q277.587 282.568 278.188 282.833Q278.79 283.098 279.4 283.342Q280.011 283.587 280.629 283.81Q281.248 284.032 281.874 284.234Q282.499 284.435 283.132 284.615Q283.764 284.795 284.402 284.952Q285.041 285.11 285.684 285.245Q286.327 285.381 286.975 285.494Q287.622 285.607 288.274 285.698Q288.925 285.789 289.579 285.857Q290.232 285.925 290.888 285.97Q291.544 286.016 292.201 286.039Q292.858 286.061 293.516 286.061Q294.173 286.061 294.83 286.039Q295.487 286.016 296.143 285.97Q296.799 285.925 297.453 285.857Q298.107 285.789 298.758 285.698Q299.409 285.607 300.056 285.494Q300.704 285.381 301.347 285.245Q301.991 285.11 302.629 284.952Q303.267 284.795 303.899 284.615Q304.532 284.435 305.158 284.234Q305.784 284.032 306.402 283.81Q307.02 283.587 307.631 283.342Q308.241 283.098 308.843 282.833Q309.444 282.568 310.036 282.282Q310.628 281.996 311.21 281.69Q311.792 281.384 312.363 281.058Q312.934 280.732 313.493 280.386Q314.052 280.041 314.599 279.676Q315.146 279.311 315.68 278.928Q316.214 278.544 316.734 278.142Q317.255 277.741 317.761 277.321Q318.267 276.902 318.759 276.465Q319.25 276.028 319.726 275.575Q320.202 275.121 320.662 274.652Q321.122 274.182 321.566 273.697Q322.009 273.211 322.436 272.711Q322.862 272.211 323.271 271.696Q323.68 271.181 324.071 270.653Q324.461 270.124 324.834 269.582Q325.206 269.04 325.559 268.486Q325.913 267.931 326.247 267.365Q326.581 266.799 326.895 266.221Q327.209 265.644 327.503 265.056L379.864 160.334Q380.3 159.481 380.693 158.607Q381.086 157.732 381.434 156.839Q381.783 155.947 382.085 155.037Q382.388 154.128 382.645 153.204Q382.901 152.281 383.111 151.345Q383.321 150.41 383.483 149.466Q383.645 148.521 383.76 147.569Q383.874 146.618 383.941 145.661Q384.007 144.705 384.025 143.747Q384.043 142.789 384.013 141.831Q383.982 140.873 383.904 139.917Q383.825 138.962 383.699 138.012Q383.572 137.062 383.398 136.119Q383.223 135.177 383.002 134.245Q382.78 133.312 382.512 132.392Q382.243 131.472 381.929 130.566Q381.795 130.18 381.653 129.797Q380.914 127.809 379.958 125.915Z" id="Triangle-Copy-2-Union" fill="url(#gradient_1)" fill-rule="evenodd" stroke="none" />
      </g>
    </g>
  </g>
</svg>