<?xml version="1.0" encoding="utf-8"?>
<svg width="1000px" height="1000px" viewBox="0 0 1000 1000" version="1.1" xmlns:xlink="http://www.w3.org/1999/xlink" xmlns="http://www.w3.org/2000/svg">
  <defs>
    <linearGradient x1="0.15718783" y1="-0.118449524" x2="0.8428122" y2="1.1184496" id="gradient_1">
      <stop offset="0%" stop-color="#F8931F" />
      <stop offset="100%" stop-color="#F02DD3" />
    </linearGradient>
    <linearGradient x1="1.1184496" y1="0.15718785" x2="-0.11844948" y2="0.8428122" id="gradient_2">
      <stop offset="0%" stop-color="#4728FF" />
      <stop offset="100%" stop-color="#C319FE" />
    </linearGradient>
    <linearGradient x1="0" y1="0" x2="1" y2="1" id="gradient_3">
      <stop offset="0%" stop-color="#C319FE" />
      <stop offset="100%" stop-color="#F02DD3" />
    </linearGradient>
    <filter filterUnits="userSpaceOnUse" color-interpolation-filters="sRGB" id="filter_1">
      <feFlood flood-opacity="0" result="BackgroundImageFix" />
      <feColorMatrix in="SourceAlpha" type="matrix" values="0 0 0 0 0 0 0 0 0 0 0 0 0 0 0 0 0 0 127 0" />
      <feMorphology radius="1" operator="dilate" in="SourceAlpha" result="effect0_dropShadow" />
      <feOffset dx="0" dy="2" />
      <feGaussianBlur stdDeviation="9.5" />
      <feColorMatrix type="matrix" values="0 0 0 0 0.39215687 0 0 0 0 0.39215687 0 0 0 0 0.39215687 0 0 0 0.49803922 0" />
      <feBlend mode="normal" in2="BackgroundImageFix" result="effect0_dropShadow" />
      <feBlend mode="normal" in="SourceGraphic" in2="effect0_dropShadow" result="shape" />
    </filter>
    <rect width="1000" height="1000" id="artboard_1" />
    <clipPath id="clip_1">
      <use xlink:href="#artboard_1" clip-rule="evenodd" />
    </clipPath>
  </defs>
  <g id="Logo-Copy" clip-path="url(#clip_1)">
    <g id="Group" transform="translate(237 131)">
      <path d="M340.425 20.9627L340.427 20.9632Q342.222 21.4778 343.989 22.0798Q345.756 22.6819 347.492 23.3699Q349.227 24.0579 350.927 24.8302Q352.627 25.6026 354.286 26.4574Q355.946 27.3122 357.562 28.2474Q359.178 29.1826 360.746 30.196Q362.314 31.2094 363.83 32.2985Q365.346 33.3876 366.807 34.5498Q368.268 35.7119 369.671 36.9444Q371.073 38.1769 372.413 39.4767Q373.753 40.7765 375.028 42.1404Q376.303 43.5044 377.509 44.9293Q378.715 46.3542 379.85 47.8366Q380.985 49.3189 382.046 50.8552Q383.106 52.3915 384.091 53.9779Q385.075 55.5644 385.98 57.1972Q386.885 58.8301 387.709 60.5053Q388.533 62.1806 389.273 63.8943Q390.014 65.608 390.67 67.356Q391.325 69.104 391.895 70.882Q392.464 72.66 392.945 74.4639Q393.426 76.2677 393.818 78.093Q394.211 79.9182 394.513 81.7605Q394.815 83.6028 395.026 85.4577Q395.237 87.3127 395.357 89.1757Q395.478 91.0388 395.506 92.9055Q395.535 94.7721 395.471 96.638Q395.408 98.5038 395.254 100.364Q395.099 102.225 394.853 104.076Q394.608 105.926 394.271 107.763Q393.935 109.599 393.509 111.417Q393.083 113.234 392.569 115.029L255.298 593.747Q254.784 595.542 254.182 597.309Q253.579 599.076 252.891 600.812Q252.203 602.547 251.431 604.247Q250.659 605.947 249.804 607.606Q248.949 609.266 248.014 610.882Q247.079 612.498 246.065 614.066Q245.052 615.634 243.963 617.15Q242.874 618.666 241.712 620.127Q240.549 621.588 239.317 622.991Q238.085 624.393 236.785 625.733Q235.485 627.073 234.121 628.348Q232.757 629.623 231.332 630.829Q229.907 632.035 228.425 633.17Q226.942 634.305 225.406 635.366Q223.87 636.426 222.284 637.411Q220.697 638.395 219.064 639.3Q217.431 640.205 215.756 641.029Q214.081 641.853 212.367 642.593Q210.654 643.334 208.906 643.99Q207.158 644.645 205.38 645.215Q203.602 645.784 201.798 646.265Q199.994 646.746 198.169 647.138Q196.343 647.53 194.501 647.833Q192.659 648.135 190.804 648.346Q188.949 648.557 187.086 648.677Q185.223 648.797 183.356 648.826Q181.489 648.854 179.624 648.791Q177.758 648.728 175.897 648.574Q174.037 648.419 172.186 648.173Q170.335 647.928 168.499 647.592Q166.663 647.255 164.845 646.829Q163.027 646.404 161.233 645.889L161.231 645.888Q159.436 645.374 157.669 644.772Q155.902 644.17 154.166 643.482Q152.431 642.794 150.731 642.021Q149.032 641.249 147.372 640.394Q145.712 639.54 144.096 638.604Q142.481 637.669 140.913 636.656Q139.345 635.642 137.828 634.553Q136.312 633.464 134.851 632.302Q133.39 631.14 131.988 629.907Q130.585 628.675 129.245 627.375Q127.905 626.075 126.631 624.711Q125.356 623.347 124.15 621.922Q122.943 620.498 121.808 619.015Q120.674 617.533 119.613 615.997Q118.552 614.46 117.568 612.874Q116.584 611.287 115.679 609.655Q114.773 608.022 113.95 606.347Q113.126 604.671 112.385 602.958Q111.644 601.244 110.989 599.496Q110.333 597.748 109.764 595.97Q109.195 594.192 108.713 592.388Q108.232 590.584 107.84 588.759Q107.448 586.934 107.146 585.091Q106.844 583.249 106.632 581.394Q106.421 579.539 106.301 577.676Q106.181 575.813 106.152 573.947Q106.124 572.08 106.187 570.214Q106.25 568.348 106.405 566.488Q106.559 564.627 106.805 562.777Q107.051 560.926 107.387 559.09Q107.723 557.253 108.149 555.436Q108.575 553.618 109.089 551.823L246.36 73.1042Q246.874 71.3096 247.476 69.5424Q248.078 67.7752 248.766 66.0397Q249.454 64.3042 250.227 62.6045Q250.999 60.9049 251.854 59.2452Q252.709 57.5854 253.644 55.9697Q254.579 54.3539 255.593 52.786Q256.606 51.218 257.695 49.7017Q258.784 48.1853 259.946 46.7243Q261.108 45.2632 262.341 43.8609Q263.573 42.4587 264.873 41.1186Q266.173 39.7784 267.537 38.5037Q268.901 37.229 270.326 36.0227Q271.751 34.8165 273.233 33.6816Q274.715 32.5467 276.252 31.4859Q277.788 30.4251 279.374 29.441Q280.961 28.4569 282.594 27.5518Q284.227 26.6467 285.902 25.8228Q287.577 24.9989 289.291 24.2582Q291.005 23.5175 292.752 22.8618Q294.5 22.2061 296.278 21.6369Q298.057 21.0678 299.86 20.5865Q301.664 20.1053 303.489 19.7132Q305.315 19.321 307.157 19.0189Q308.999 18.7168 310.854 18.5055Q312.709 18.2942 314.572 18.1741Q316.435 18.054 318.302 18.0255Q320.169 17.997 322.035 18.0601Q323.9 18.1232 325.761 18.2778Q327.621 18.4324 329.472 18.6781Q331.323 18.9238 333.159 19.26Q334.996 19.5963 336.813 20.0222Q338.631 20.4481 340.425 20.9627Z" id="Rectangle" fill="url(#gradient_1)" fill-rule="evenodd" stroke="none" filter="url(#filter_1)" />
      <path d="M505.374 665.65L505.373 665.652Q504.859 667.447 504.257 669.214Q503.655 670.981 502.967 672.716Q502.279 674.452 501.506 676.152Q500.734 677.851 499.879 679.511Q499.024 681.171 498.089 682.786Q497.154 684.402 496.141 685.97Q495.127 687.538 494.038 689.054Q492.949 690.571 491.787 692.032Q490.625 693.493 489.392 694.895Q488.16 696.297 486.86 697.637Q485.56 698.978 484.196 700.252Q482.832 701.527 481.408 702.733Q479.983 703.94 478.5 705.074Q477.018 706.209 475.482 707.27Q473.946 708.331 472.359 709.315Q470.773 710.299 469.14 711.204Q467.507 712.109 465.832 712.933Q464.156 713.757 462.443 714.498Q460.729 715.238 458.981 715.894Q457.233 716.55 455.455 717.119Q453.677 717.688 451.873 718.169Q450.07 718.651 448.244 719.043Q446.419 719.435 444.577 719.737Q442.735 720.039 440.88 720.25Q439.025 720.462 437.162 720.582Q435.299 720.702 433.432 720.73Q431.565 720.759 429.7 720.696Q427.834 720.633 425.973 720.478Q424.113 720.323 422.262 720.078Q420.411 719.832 418.575 719.496Q416.739 719.16 414.921 718.734Q413.103 718.308 411.309 717.793L161.335 646.115Q159.541 645.6 157.774 644.998Q156.006 644.396 154.271 643.708Q152.535 643.02 150.836 642.248Q149.136 641.475 147.476 640.62Q145.817 639.766 144.201 638.83Q142.585 637.895 141.017 636.882Q139.449 635.869 137.933 634.779Q136.417 633.69 134.956 632.528Q133.495 631.366 132.092 630.134Q130.69 628.901 129.35 627.601Q128.01 626.302 126.735 624.938Q125.461 623.574 124.254 622.149Q123.048 620.724 121.913 619.242Q120.778 617.759 119.718 616.223Q118.657 614.687 117.673 613.1Q116.689 611.514 115.783 609.881Q114.878 608.248 114.054 606.573Q113.231 604.898 112.49 603.184Q111.749 601.47 111.094 599.722Q110.438 597.974 109.869 596.196Q109.3 594.418 108.818 592.615Q108.337 590.811 107.945 588.986Q107.553 587.16 107.251 585.318Q106.949 583.476 106.737 581.621Q106.526 579.766 106.406 577.903Q106.286 576.04 106.257 574.173Q106.229 572.306 106.292 570.441Q106.355 568.575 106.51 566.714Q106.664 564.854 106.91 563.003Q107.156 561.153 107.492 559.316Q107.828 557.48 108.254 555.662Q108.68 553.845 109.194 552.05L109.195 552.048Q109.71 550.253 110.312 548.486Q110.914 546.719 111.602 544.984Q112.29 543.248 113.062 541.548Q113.834 539.849 114.689 538.189Q115.544 536.529 116.479 534.914Q117.414 533.298 118.428 531.73Q119.441 530.162 120.53 528.646Q121.619 527.129 122.781 525.668Q123.943 524.207 125.176 522.805Q126.408 521.403 127.708 520.063Q129.008 518.723 130.372 517.448Q131.736 516.173 133.161 514.967Q134.586 513.761 136.068 512.626Q137.55 511.491 139.087 510.43Q140.623 509.369 142.209 508.385Q143.796 507.401 145.429 506.496Q147.061 505.591 148.737 504.767Q150.412 503.943 152.126 503.203Q153.839 502.462 155.587 501.806Q157.335 501.15 159.113 500.581Q160.891 500.012 162.695 499.531Q164.499 499.05 166.324 498.658Q168.149 498.265 169.992 497.963Q171.834 497.661 173.689 497.45Q175.544 497.238 177.407 497.118Q179.27 496.998 181.136 496.97Q183.003 496.941 184.869 497.004Q186.735 497.068 188.595 497.222Q190.456 497.377 192.306 497.622Q194.157 497.868 195.993 498.204Q197.83 498.541 199.647 498.966Q201.465 499.392 203.26 499.907L453.232 571.585Q455.027 572.1 456.794 572.702Q458.561 573.304 460.297 573.992Q462.032 574.68 463.732 575.452Q465.432 576.225 467.091 577.079Q468.751 577.934 470.367 578.869Q471.983 579.805 473.551 580.818Q475.118 581.831 476.635 582.92Q478.151 584.01 479.612 585.172Q481.073 586.334 482.475 587.566Q483.878 588.799 485.218 590.099Q486.558 591.398 487.833 592.762Q489.107 594.126 490.314 595.551Q491.52 596.976 492.655 598.458Q493.79 599.941 494.85 601.477Q495.911 603.013 496.895 604.6Q497.879 606.186 498.785 607.819Q499.69 609.452 500.513 611.127Q501.337 612.802 502.078 614.516Q502.819 616.23 503.474 617.978Q504.13 619.726 504.699 621.504Q505.268 623.282 505.75 625.085Q506.231 626.889 506.623 628.715Q507.015 630.54 507.317 632.382Q507.619 634.224 507.831 636.079Q508.042 637.934 508.162 639.797Q508.282 641.66 508.311 643.527Q508.339 645.394 508.276 647.259Q508.213 649.125 508.059 650.986Q507.904 652.846 507.658 654.697Q507.413 656.547 507.076 658.384Q506.74 660.22 506.314 662.038Q505.888 663.856 505.374 665.65Z" id="Rectangle-Copy" fill="url(#gradient_2)" fill-rule="evenodd" stroke="none" filter="url(#filter_1)" />
      <path d="M319.418 94.1973C319.418 94.1973 168.723 349.153 0 94.1973" id="New-shape" fill="none" fill-rule="evenodd" stroke="url(#gradient_3)" stroke-width="152.1" stroke-linecap="round" stroke-linejoin="round" filter="url(#filter_1)" />
    </g>
  </g>
</svg>