<svg width="1000" height="1000" viewBox="0 0 1000 1000" fill="none" xmlns="http://www.w3.org/2000/svg">
<style>
  path {
    fill: black;
    stroke: black;
  }
  @media (prefers-color-scheme: dark) {
    path {
      fill: white;
      stroke: white;
    }
  }
</style>
<path d="M734.374 147.5C754.251 147.5 770.672 153.136 782.525 165.332C794.774 177.498 800.5 194.001 800.5 213.856C800.5 232.962 796.031 253.722 787.386 276.048L787.377 276.07L787.368 276.094C778.712 298.018 766.636 319.836 751.204 341.55C735.731 363.322 717.489 383.565 696.5 402.285C675.415 421.091 652.375 436.706 627.392 449.113C603.5 460.978 578.41 468.575 552.156 471.896C546.149 484.622 538.756 500.276 529.975 518.857L529.949 518.912C521.502 536.421 511.647 554.366 500.396 572.747C533.622 580.911 565.134 591.52 594.919 604.583H594.918C628.105 618.954 657.372 635.278 682.667 653.589L682.676 653.596L682.686 653.602C708.009 672.047 728.169 691.694 742.974 712.603L743.674 713.6L743.715 713.658C758.654 735.479 766.459 757.592 766.459 779.882C766.459 799.554 761.485 816.638 751.124 830.671C740.962 844.434 728.448 852.5 713.571 852.5C711.043 852.5 708.504 852.257 706.179 851.546C703.984 850.875 701.578 849.659 699.739 847.454C697.376 844.945 695.985 841.741 695.985 838.112V831.752L702.26 830.713C706.951 829.936 712.782 826.191 719.442 816.853L719.486 816.79L719.531 816.729C725.633 808.53 728.765 798.861 728.765 787.396C728.765 768.712 722.656 750.373 709.976 732.254C697.193 714.407 679.042 697.701 655.267 682.229C631.495 666.76 603.492 653.445 571.187 642.338L571.077 642.299C540.507 631.257 506.992 623.03 470.508 617.645C456.602 636.64 440.996 654.138 423.691 670.133C405.487 687.767 385.088 701.784 362.511 712.146C340.014 723.087 315.581 728.525 289.32 728.525C261.813 728.525 239.598 722.245 223.871 708.518C208.661 695.241 200.5 679.302 200.5 660.917C200.5 644.16 207.278 627.941 219.81 612.383L219.817 612.373L219.826 612.363C233.055 596.052 252.545 583.102 277.685 573.191L278.907 572.703C304.673 562.538 336.606 557.618 374.423 557.618C402.168 557.618 430.271 559.878 458.727 564.389C468.105 547.717 476.606 531.059 484.225 514.411C490.928 499.763 496.948 485.801 502.292 472.525C465.059 470.256 434.735 464.059 411.672 453.61L411.574 453.565C386.746 441.884 368.366 427.047 357.286 408.705C346.575 390.974 341.076 372.533 341.076 353.484C341.076 329.732 348.326 307.4 362.562 286.631C376.742 265.527 395.959 248.474 420.02 235.438C444.325 222.271 471.416 215.749 501.13 215.749C503.677 215.749 506.499 216.215 509.067 217.745C511.616 219.264 513.372 221.511 514.357 224.098L514.545 224.619L514.893 225.702C515.671 228.236 516.195 230.806 516.195 233.267V240.767H508.695C493.886 240.767 479.428 244.046 465.256 250.689C451.383 257.389 438.873 266.457 427.71 277.94L427.664 277.988L427.617 278.034C416.452 289.124 407.503 301.567 400.738 315.38C394.474 329.021 391.378 342.954 391.378 357.241C391.378 370.872 394.984 384.455 402.423 398.075C409.47 410.568 421.778 421.537 440.167 430.669C457.169 439.112 481.301 444.175 513.077 445.377C515.97 437.815 518.431 430.849 520.459 424.47L520.494 424.359L520.533 424.25C523.472 415.909 525.995 408.808 528.101 402.951C538.209 372.837 548.948 342.931 560.317 313.234L560.333 313.191L560.351 313.148C572.254 283.169 585.674 255.862 600.626 231.251L600.65 231.211L600.676 231.171C616.262 206.229 634.778 186.051 656.278 170.798C678.303 155.172 704.455 147.5 734.374 147.5ZM374.423 610.812C340.404 610.812 312.875 614.324 291.597 621.103L291.535 621.122L291.475 621.141C269.78 627.646 254.432 635.756 244.699 645.052L244.695 645.056C235.001 654.3 231.26 662.489 231.26 669.683C231.26 676.852 234.958 683.756 244.921 690.353L245 690.405L245.077 690.459C254.666 697.161 269.098 701.003 289.32 701.003C318.661 701.003 345.186 691.599 369.126 672.576L369.187 672.529C390.559 655.901 409.962 636.004 427.39 612.802C409.733 611.476 392.078 610.813 374.423 610.812ZM734.374 194.433C718.744 194.433 703.527 201.218 688.598 216.047L688.562 216.082L688.526 216.117C673.218 230.922 658.295 250.944 643.834 276.383C629.678 301.608 615.704 329.779 601.915 360.905C589.956 387.902 577.996 414.742 566.037 441.429C584.838 437.582 602.552 431.117 619.204 422.036C640.058 410.664 659.063 396.863 676.232 380.627C693.502 363.878 708.262 346.152 720.54 327.453C732.877 308.664 742.257 290.404 748.752 272.673C755.28 254.431 758.394 238.62 758.394 225.127C758.394 214.438 756.081 207.046 752.344 202.097L752.278 202.01L752.215 201.922C748.937 197.31 743.565 194.433 734.374 194.433Z" stroke-width="15"/>
</svg>
