<?xml version="1.0" encoding="utf-8"?>
<svg width="737.3513px" height="218.36298px" viewBox="0 0 737.3513 218.36298" version="1.1" xmlns:xlink="http://www.w3.org/1999/xlink" xmlns="http://www.w3.org/2000/svg">
  <g id="Background">
    <g id="" fill="#5A5A6E" transform="matrix(0.90630776 0.42261827 -0.42261827 0.90630776 302.98926 48.909058)">
      <path d="M28.8281 -6.32813Q31.7813 -6.32812 34.3828 -5.20313Q36.9844 -4.07813 38.9531 -2.10938Q40.9219 -0.140625 42.0469 2.46094Q43.1719 5.06251 43.1719 8.08594L43.1719 15.2578L49.7109 15.2578Q52.9453 15.2578 55.2656 17.6484Q57.5859 20.0391 57.5859 23.3438L57.5859 57.5859Q57.5859 60.9609 55.2656 63.3164Q52.9453 65.6719 49.7109 65.6719L7.94531 65.6719Q4.71094 65.6719 2.35547 63.3164Q0 60.9609 0 57.5859L0 23.3438Q0 20.0391 2.35547 17.6484Q4.71094 15.2578 7.94531 15.2578L14.4141 15.2578L14.4141 8.08594Q14.4141 5.0625 15.5391 2.46094Q16.6641 -0.140621 18.6328 -2.10938Q20.6016 -4.07812 23.2031 -5.20313Q25.8047 -6.32812 28.8281 -6.32813ZM49.7109 20.6719L7.94531 20.6719Q6.82031 20.6719 6.11719 21.4453Q5.41406 22.2188 5.41406 23.3438L5.41406 57.5859Q5.41406 58.7109 6.11719 59.4844Q6.82031 60.2578 7.94531 60.2578L49.7109 60.2578Q50.7656 60.2578 51.4688 59.4844Q52.1719 58.7109 52.1719 57.5859L52.1719 23.3438Q52.1719 22.2188 51.4688 21.4453Q50.7656 20.6719 49.7109 20.6719ZM28.8281 35.0859Q30.9375 35.0859 32.5547 36.668Q34.1719 38.25 34.1719 40.5Q34.1719 42.6797 32.5547 44.2617Q30.9375 45.8438 28.8281 45.8438Q26.6484 45.8438 25.0313 44.2617Q23.4141 42.6797 23.4141 40.5Q23.4141 38.25 25.0313 36.668Q26.6484 35.0859 28.8281 35.0859ZM28.8281 -0.914063Q28.7578 -0.914063 28.7578 -0.914063Q25.0313 -0.914063 22.4297 1.6875Q19.8281 4.28906 19.8281 8.01563Q19.8281 8.01563 19.8281 8.05078Q19.8281 8.08594 19.8281 8.08594L19.8281 15.2578L37.8281 15.2578L37.8281 8.08594Q37.8281 8.08594 37.8281 8.05078Q37.8281 8.01563 37.8281 8.01563Q37.8281 4.28906 35.1914 1.6875Q32.5547 -0.914059 28.8281 -0.914063Z" />
    </g>
    <g id="" fill="#5A5A6E" transform="matrix(0.90630776 0.42261827 -0.42261827 0.90630776 30.428467 73.30969)">
      <path d="M28.8281 -6.32813Q31.7813 -6.32812 34.3828 -5.20313Q36.9844 -4.07813 38.9531 -2.10938Q40.9219 -0.140625 42.0469 2.46094Q43.1719 5.06251 43.1719 8.08594L43.1719 15.2578L49.7109 15.2578Q52.9453 15.2578 55.2656 17.6484Q57.5859 20.0391 57.5859 23.3438L57.5859 57.5859Q57.5859 60.9609 55.2656 63.3164Q52.9453 65.6719 49.7109 65.6719L7.94531 65.6719Q4.71094 65.6719 2.35547 63.3164Q0 60.9609 0 57.5859L0 23.3438Q0 20.0391 2.35547 17.6484Q4.71094 15.2578 7.94531 15.2578L14.4141 15.2578L14.4141 8.08594Q14.4141 5.0625 15.5391 2.46094Q16.6641 -0.140621 18.6328 -2.10938Q20.6016 -4.07812 23.2031 -5.20313Q25.8047 -6.32812 28.8281 -6.32813ZM49.7109 20.6719L7.94531 20.6719Q6.82031 20.6719 6.11719 21.4453Q5.41406 22.2188 5.41406 23.3438L5.41406 57.5859Q5.41406 58.7109 6.11719 59.4844Q6.82031 60.2578 7.94531 60.2578L49.7109 60.2578Q50.7656 60.2578 51.4688 59.4844Q52.1719 58.7109 52.1719 57.5859L52.1719 23.3438Q52.1719 22.2188 51.4688 21.4453Q50.7656 20.6719 49.7109 20.6719ZM28.8281 35.0859Q30.9375 35.0859 32.5547 36.668Q34.1719 38.25 34.1719 40.5Q34.1719 42.6797 32.5547 44.2617Q30.9375 45.8438 28.8281 45.8438Q26.6484 45.8438 25.0313 44.2617Q23.4141 42.6797 23.4141 40.5Q23.4141 38.25 25.0313 36.668Q26.6484 35.0859 28.8281 35.0859ZM28.8281 -0.914063Q28.7578 -0.914063 28.7578 -0.914063Q25.0313 -0.914063 22.4297 1.6875Q19.8281 4.28906 19.8281 8.01563Q19.8281 8.01563 19.8281 8.05078Q19.8281 8.08594 19.8281 8.08594L19.8281 15.2578L37.8281 15.2578L37.8281 8.08594Q37.8281 8.08594 37.8281 8.05078Q37.8281 8.01563 37.8281 8.01563Q37.8281 4.28906 35.1914 1.6875Q32.5547 -0.914059 28.8281 -0.914063Z" />
    </g>
    <g id="" fill="#5A5A6E" transform="matrix(0.90630776 0.42261827 -0.42261827 0.90630776 136.43384 1.335144E-05)">
      <path d="M28.8281 -6.32813Q31.7813 -6.32812 34.3828 -5.20313Q36.9844 -4.07813 38.9531 -2.10938Q40.9219 -0.140625 42.0469 2.46094Q43.1719 5.06251 43.1719 8.08594L43.1719 15.2578L49.7109 15.2578Q52.9453 15.2578 55.2656 17.6484Q57.5859 20.0391 57.5859 23.3438L57.5859 26.0859Q55.9687 26.0859 54.3516 27.2813L54 27.6328Q53.4375 28.0547 53.0859 28.4766Q52.7344 28.8984 52.1719 29.25L52.1719 23.3438Q52.1719 22.2188 51.4688 21.4453Q50.7656 20.6719 49.7109 20.6719L7.94531 20.6719Q6.82031 20.6719 6.11719 21.4453Q5.41406 22.2188 5.41406 23.3438L5.41406 57.5859Q5.41406 58.7109 6.11719 59.4844Q6.82031 60.2578 7.94531 60.2578L43.5234 60.2578Q44.6484 61.8047 46.1602 63.1758Q47.6719 64.5469 49.2891 65.6719L7.94531 65.6719Q4.71094 65.6719 2.35547 63.2813Q0 60.8906 0 57.5859L0 23.3438Q0 20.0391 2.35547 17.6484Q4.71094 15.2578 7.94531 15.2578L14.4141 15.2578L14.4141 8.08594Q14.4141 5.0625 15.5391 2.46094Q16.6641 -0.140621 18.6328 -2.10938Q20.6016 -4.07812 23.2031 -5.20313Q25.8047 -6.32812 28.8281 -6.32813ZM58.7109 30.0938Q61.3828 32.9063 64.3359 34.2773Q67.2891 35.6484 70.5234 35.6484Q71.0859 35.6484 71.543 36Q72 36.3516 72 36.8438L72 46.1953Q72 49.7813 71.0859 52.8047Q70.2422 55.8984 68.4844 58.3242Q66.7266 60.75 64.125 62.5781Q61.4531 64.4063 57.9375 65.6016Q57.6563 65.6719 57.5859 65.6719Q57.5156 65.6719 57.2344 65.6016Q53.8594 64.4063 51.2578 62.7188Q48.7266 60.9609 46.9688 58.6406Q45.2109 56.3203 44.2969 53.4375Q43.3125 50.5547 43.1719 47.1094L43.1719 37.1953Q43.1719 36.5625 43.6289 36.1055Q44.0859 35.6484 44.6484 35.6484Q47.8828 35.6484 50.8359 34.2773Q53.7891 32.9063 56.5313 30.0938Q57.0234 29.6719 57.5859 29.6719Q58.1484 29.6719 58.7109 30.0938ZM28.8281 35.0859Q30.9375 35.0859 32.5547 36.668Q34.1719 38.25 34.1719 40.5Q34.1719 42.6797 32.5547 44.2617Q30.9375 45.8438 28.8281 45.8438Q26.6484 45.8438 25.0313 44.2617Q23.4141 42.6797 23.4141 40.5Q23.4141 38.25 25.0313 36.668Q26.6484 35.0859 28.8281 35.0859ZM28.8281 -0.914063Q28.7578 -0.914063 28.7578 -0.914063Q25.0313 -0.914063 22.4297 1.6875Q19.8281 4.28906 19.8281 8.01563Q19.8281 8.01563 19.8281 8.05078Q19.8281 8.08594 19.8281 8.08594L19.8281 15.2578L37.8281 15.2578L37.8281 8.08594Q37.8281 8.08594 37.8281 8.05078Q37.8281 8.01563 37.8281 8.01563Q37.8281 4.28906 35.1914 1.6875Q32.5547 -0.914059 28.8281 -0.914063Z" />
    </g>
    <g id="" fill="#5A5A6E" transform="matrix(0.90630776 0.42261827 -0.42261827 0.90630776 196.05177 98.13684)">
      <path d="M0 7.17188Q0 6.04688 0.773438 5.27344Q1.54687 4.5 2.88281 4.5Q6.39844 4.5 9.91406 3.86719Q13.4297 3.16407 16.9453 1.89844Q20.4609 0.63282 23.9063 -1.26563Q27.4219 -3.23437 30.9375 -5.76563Q31.5 -6.32812 32.4141 -6.32813Q33.3281 -6.32812 33.8203 -5.76563Q37.3359 -3.23438 40.8516 -1.26563Q44.3672 0.63282 47.8828 1.89844Q51.3984 3.16407 54.9141 3.86719Q58.4297 4.5 61.9453 4.5Q63.2812 4.5 64.0547 5.27344Q64.8281 6.04688 64.8281 7.17188L64.8281 26.0859Q64.8281 32.8359 62.7891 38.6719Q60.8203 44.5078 56.8477 49.4648Q52.875 54.4219 47.0391 58.4297Q41.2031 62.4375 33.4688 65.4609Q33.2578 65.6016 32.9766 65.6367Q32.6953 65.6719 32.4141 65.6719Q32.1328 65.6719 31.8516 65.6367Q31.5703 65.6016 31.2891 65.4609Q23.625 62.4375 17.7891 58.4297Q11.8828 54.4219 7.94531 49.4648Q4.00781 44.5078 2.03906 38.6719C0.679688 34.7813 0 30.5859 0 26.0859L0 7.17188ZM5.41406 9.77344L5.41406 26.0859Q5.41406 31.8516 7.10156 36.7734Q8.78906 41.7656 12.1641 46.0195Q15.5391 50.2734 20.6016 53.7891Q25.6641 57.3047 32.4141 60.0469Q39.1641 57.3047 44.2266 53.7891Q49.2891 50.2734 52.6641 46.0195Q56.0391 41.7656 57.7266 36.7734Q59.4141 31.8516 59.4141 26.0859L59.4141 9.77344Q45.3516 9 32.4141 -0.28125Q19.4063 8.92969 5.41406 9.77344Z" />
    </g>
    <g id="" fill="#5A5A6E" transform="matrix(0.90630776 0.42261827 -0.42261827 0.90630776 459.10083 108.92163)">
      <path d="M0 7.17188Q0 6.04688 0.773438 5.27344Q1.54687 4.5 2.88281 4.5Q6.39844 4.5 9.91406 3.86719Q13.4297 3.16407 16.9453 1.89844Q20.4609 0.63282 23.9063 -1.26563Q27.4219 -3.23437 30.9375 -5.76563Q31.5 -6.32812 32.4141 -6.32813Q33.3281 -6.32812 33.8203 -5.76563Q37.3359 -3.23438 40.8516 -1.26563Q44.3672 0.63282 47.8828 1.89844Q51.3984 3.16407 54.9141 3.86719Q58.4297 4.5 61.9453 4.5Q63.2812 4.5 64.0547 5.27344Q64.8281 6.04688 64.8281 7.17188L64.8281 26.0859Q64.8281 32.8359 62.7891 38.6719Q60.8203 44.5078 56.8477 49.4648Q52.875 54.4219 47.0391 58.4297Q41.2031 62.4375 33.4688 65.4609Q33.2578 65.6016 32.9766 65.6367Q32.6953 65.6719 32.4141 65.6719Q32.1328 65.6719 31.8516 65.6367Q31.5703 65.6016 31.2891 65.4609Q23.625 62.4375 17.7891 58.4297Q11.8828 54.4219 7.94531 49.4648Q4.00781 44.5078 2.03906 38.6719C0.679688 34.7813 0 30.5859 0 26.0859L0 7.17188ZM5.41406 9.77344L5.41406 26.0859Q5.41406 31.8516 7.10156 36.7734Q8.78906 41.7656 12.1641 46.0195Q15.5391 50.2734 20.6016 53.7891Q25.6641 57.3047 32.4141 60.0469Q39.1641 57.3047 44.2266 53.7891Q49.2891 50.2734 52.6641 46.0195Q56.0391 41.7656 57.7266 36.7734Q59.4141 31.8516 59.4141 26.0859L59.4141 9.77344Q45.3516 9 32.4141 -0.28125Q19.4063 8.92969 5.41406 9.77344Z" />
    </g>
    <g id="" fill="#5A5A6E" transform="matrix(0.90630776 0.42261827 -0.42261827 0.90630776 678.44116 28.532473)">
      <path d="M0 7.17188Q0 6.04688 0.773438 5.27344Q1.54687 4.5 2.88281 4.5Q6.39844 4.5 9.91406 3.86719Q13.4297 3.16407 16.9453 1.89844Q20.4609 0.63282 23.9063 -1.26563Q27.4219 -3.23437 30.9375 -5.76563Q31.5 -6.32812 32.4141 -6.32813Q33.3281 -6.32812 33.8203 -5.76563Q37.3359 -3.23438 40.8516 -1.26563Q44.3672 0.63282 47.8828 1.89844Q51.3984 3.16407 54.9141 3.86719Q58.4297 4.5 61.9453 4.5Q63.2812 4.5 64.0547 5.27344Q64.8281 6.04688 64.8281 7.17188L64.8281 26.0859Q64.8281 32.8359 62.7891 38.6719Q60.8203 44.5078 56.8477 49.4648Q52.875 54.4219 47.0391 58.4297Q41.2031 62.4375 33.4688 65.4609Q33.2578 65.6016 32.9766 65.6367Q32.6953 65.6719 32.4141 65.6719Q32.1328 65.6719 31.8516 65.6367Q31.5703 65.6016 31.2891 65.4609Q23.625 62.4375 17.7891 58.4297Q11.8828 54.4219 7.94531 49.4648Q4.00781 44.5078 2.03906 38.6719C0.679688 34.7813 0 30.5859 0 26.0859L0 7.17188ZM5.41406 9.77344L5.41406 26.0859Q5.41406 31.8516 7.10156 36.7734Q8.78906 41.7656 12.1641 46.0195Q15.5391 50.2734 20.6016 53.7891Q25.6641 57.3047 32.4141 60.0469Q39.1641 57.3047 44.2266 53.7891Q49.2891 50.2734 52.6641 46.0195Q56.0391 41.7656 57.7266 36.7734Q59.4141 31.8516 59.4141 26.0859L59.4141 9.77344Q45.3516 9 32.4141 -0.28125Q19.4063 8.92969 5.41406 9.77344Z" />
    </g>
    <g id="" fill="#5A5A6E" transform="matrix(0.90630776 0.42261827 -0.42261827 0.90630776 415.9275 15.767958)">
      <path d="M28.8281 -6.32813Q31.7813 -6.32812 34.3828 -5.20313Q36.9844 -4.07813 38.9531 -2.10938Q40.9219 -0.140625 42.0469 2.46094Q43.1719 5.06251 43.1719 8.08594L43.1719 15.2578L49.7109 15.2578Q52.9453 15.2578 55.2656 17.6484Q57.5859 20.0391 57.5859 23.3438L57.5859 26.0859Q55.9687 26.0859 54.3516 27.2813L54 27.6328Q53.4375 28.0547 53.0859 28.4766Q52.7344 28.8984 52.1719 29.25L52.1719 23.3438Q52.1719 22.2188 51.4688 21.4453Q50.7656 20.6719 49.7109 20.6719L7.94531 20.6719Q6.82031 20.6719 6.11719 21.4453Q5.41406 22.2188 5.41406 23.3438L5.41406 57.5859Q5.41406 58.7109 6.11719 59.4844Q6.82031 60.2578 7.94531 60.2578L43.5234 60.2578Q44.6484 61.8047 46.1602 63.1758Q47.6719 64.5469 49.2891 65.6719L7.94531 65.6719Q4.71094 65.6719 2.35547 63.2813Q0 60.8906 0 57.5859L0 23.3438Q0 20.0391 2.35547 17.6484Q4.71094 15.2578 7.94531 15.2578L14.4141 15.2578L14.4141 8.08594Q14.4141 5.0625 15.5391 2.46094Q16.6641 -0.140621 18.6328 -2.10938Q20.6016 -4.07812 23.2031 -5.20313Q25.8047 -6.32812 28.8281 -6.32813ZM58.7109 30.0938Q61.3828 32.9063 64.3359 34.2773Q67.2891 35.6484 70.5234 35.6484Q71.0859 35.6484 71.543 36Q72 36.3516 72 36.8438L72 46.1953Q72 49.7813 71.0859 52.8047Q70.2422 55.8984 68.4844 58.3242Q66.7266 60.75 64.125 62.5781Q61.4531 64.4063 57.9375 65.6016Q57.6563 65.6719 57.5859 65.6719Q57.5156 65.6719 57.2344 65.6016Q53.8594 64.4063 51.2578 62.7188Q48.7266 60.9609 46.9688 58.6406Q45.2109 56.3203 44.2969 53.4375Q43.3125 50.5547 43.1719 47.1094L43.1719 37.1953Q43.1719 36.5625 43.6289 36.1055Q44.0859 35.6484 44.6484 35.6484Q47.8828 35.6484 50.8359 34.2773Q53.7891 32.9063 56.5313 30.0938Q57.0234 29.6719 57.5859 29.6719Q58.1484 29.6719 58.7109 30.0938ZM28.8281 35.0859Q30.9375 35.0859 32.5547 36.668Q34.1719 38.25 34.1719 40.5Q34.1719 42.6797 32.5547 44.2617Q30.9375 45.8438 28.8281 45.8438Q26.6484 45.8438 25.0313 44.2617Q23.4141 42.6797 23.4141 40.5Q23.4141 38.25 25.0313 36.668Q26.6484 35.0859 28.8281 35.0859ZM28.8281 -0.914063Q28.7578 -0.914063 28.7578 -0.914063Q25.0313 -0.914063 22.4297 1.6875Q19.8281 4.28906 19.8281 8.01563Q19.8281 8.01563 19.8281 8.05078Q19.8281 8.08594 19.8281 8.08594L19.8281 15.2578L37.8281 15.2578L37.8281 8.08594Q37.8281 8.08594 37.8281 8.05078Q37.8281 8.01563 37.8281 8.01563Q37.8281 4.28906 35.1914 1.6875Q32.5547 -0.914059 28.8281 -0.914063Z" />
    </g>
    <g id="" fill="#5A5A6E" transform="matrix(0.90630776 0.42261827 -0.42261827 0.90630776 644.03784 122.6803)">
      <path d="M28.8281 -6.32813Q31.7813 -6.32812 34.3828 -5.20313Q36.9844 -4.07813 38.9531 -2.10938Q40.9219 -0.140625 42.0469 2.46094Q43.1719 5.06251 43.1719 8.08594L43.1719 15.2578L49.7109 15.2578Q52.9453 15.2578 55.2656 17.6484Q57.5859 20.0391 57.5859 23.3438L57.5859 26.0859Q55.9687 26.0859 54.3516 27.2813L54 27.6328Q53.4375 28.0547 53.0859 28.4766Q52.7344 28.8984 52.1719 29.25L52.1719 23.3438Q52.1719 22.2188 51.4688 21.4453Q50.7656 20.6719 49.7109 20.6719L7.94531 20.6719Q6.82031 20.6719 6.11719 21.4453Q5.41406 22.2188 5.41406 23.3438L5.41406 57.5859Q5.41406 58.7109 6.11719 59.4844Q6.82031 60.2578 7.94531 60.2578L43.5234 60.2578Q44.6484 61.8047 46.1602 63.1758Q47.6719 64.5469 49.2891 65.6719L7.94531 65.6719Q4.71094 65.6719 2.35547 63.2813Q0 60.8906 0 57.5859L0 23.3438Q0 20.0391 2.35547 17.6484Q4.71094 15.2578 7.94531 15.2578L14.4141 15.2578L14.4141 8.08594Q14.4141 5.0625 15.5391 2.46094Q16.6641 -0.140621 18.6328 -2.10938Q20.6016 -4.07812 23.2031 -5.20313Q25.8047 -6.32812 28.8281 -6.32813ZM58.7109 30.0938Q61.3828 32.9063 64.3359 34.2773Q67.2891 35.6484 70.5234 35.6484Q71.0859 35.6484 71.543 36Q72 36.3516 72 36.8438L72 46.1953Q72 49.7813 71.0859 52.8047Q70.2422 55.8984 68.4844 58.3242Q66.7266 60.75 64.125 62.5781Q61.4531 64.4063 57.9375 65.6016Q57.6563 65.6719 57.5859 65.6719Q57.5156 65.6719 57.2344 65.6016Q53.8594 64.4063 51.2578 62.7188Q48.7266 60.9609 46.9688 58.6406Q45.2109 56.3203 44.2969 53.4375Q43.3125 50.5547 43.1719 47.1094L43.1719 37.1953Q43.1719 36.5625 43.6289 36.1055Q44.0859 35.6484 44.6484 35.6484Q47.8828 35.6484 50.8359 34.2773Q53.7891 32.9063 56.5313 30.0938Q57.0234 29.6719 57.5859 29.6719Q58.1484 29.6719 58.7109 30.0938ZM28.8281 35.0859Q30.9375 35.0859 32.5547 36.668Q34.1719 38.25 34.1719 40.5Q34.1719 42.6797 32.5547 44.2617Q30.9375 45.8438 28.8281 45.8438Q26.6484 45.8438 25.0313 44.2617Q23.4141 42.6797 23.4141 40.5Q23.4141 38.25 25.0313 36.668Q26.6484 35.0859 28.8281 35.0859ZM28.8281 -0.914063Q28.7578 -0.914063 28.7578 -0.914063Q25.0313 -0.914063 22.4297 1.6875Q19.8281 4.28906 19.8281 8.01563Q19.8281 8.01563 19.8281 8.05078Q19.8281 8.08594 19.8281 8.08594L19.8281 15.2578L37.8281 15.2578L37.8281 8.08594Q37.8281 8.08594 37.8281 8.05078Q37.8281 8.01563 37.8281 8.01563Q37.8281 4.28906 35.1914 1.6875Q32.5547 -0.914059 28.8281 -0.914063Z" />
    </g>
    <g id="" fill="#5A5A6E" transform="matrix(0.90630776 0.42261827 -0.42261827 0.90630776 550.67896 49.79248)">
      <path d="M28.8281 -6.32813Q31.7813 -6.32812 34.3828 -5.20313Q36.9844 -4.07813 38.9531 -2.10938Q40.9219 -0.140625 42.0469 2.46094Q43.1719 5.06251 43.1719 8.08594L43.1719 15.2578L49.7109 15.2578Q52.9453 15.2578 55.2656 17.6484Q57.5859 20.0391 57.5859 23.3438L57.5859 57.5859Q57.5859 60.9609 55.2656 63.3164Q52.9453 65.6719 49.7109 65.6719L7.94531 65.6719Q4.71094 65.6719 2.35547 63.3164Q0 60.9609 0 57.5859L0 23.3438Q0 20.0391 2.35547 17.6484Q4.71094 15.2578 7.94531 15.2578L14.4141 15.2578L14.4141 8.08594Q14.4141 5.0625 15.5391 2.46094Q16.6641 -0.140621 18.6328 -2.10938Q20.6016 -4.07812 23.2031 -5.20313Q25.8047 -6.32812 28.8281 -6.32813ZM49.7109 20.6719L7.94531 20.6719Q6.82031 20.6719 6.11719 21.4453Q5.41406 22.2188 5.41406 23.3438L5.41406 57.5859Q5.41406 58.7109 6.11719 59.4844Q6.82031 60.2578 7.94531 60.2578L49.7109 60.2578Q50.7656 60.2578 51.4688 59.4844Q52.1719 58.7109 52.1719 57.5859L52.1719 23.3438Q52.1719 22.2188 51.4688 21.4453Q50.7656 20.6719 49.7109 20.6719ZM28.8281 35.0859Q30.9375 35.0859 32.5547 36.668Q34.1719 38.25 34.1719 40.5Q34.1719 42.6797 32.5547 44.2617Q30.9375 45.8438 28.8281 45.8438Q26.6484 45.8438 25.0313 44.2617Q23.4141 42.6797 23.4141 40.5Q23.4141 38.25 25.0313 36.668Q26.6484 35.0859 28.8281 35.0859ZM28.8281 -0.914063Q28.7578 -0.914063 28.7578 -0.914063Q25.0313 -0.914063 22.4297 1.6875Q19.8281 4.28906 19.8281 8.01563Q19.8281 8.01563 19.8281 8.05078Q19.8281 8.08594 19.8281 8.08594L19.8281 15.2578L37.8281 15.2578L37.8281 8.08594Q37.8281 8.08594 37.8281 8.05078Q37.8281 8.01563 37.8281 8.01563Q37.8281 4.28906 35.1914 1.6875Q32.5547 -0.914059 28.8281 -0.914063Z" />
    </g>
  </g>
</svg>