<?xml version="1.0" encoding="utf-8"?>
<svg width="1000px" height="1000px" viewBox="0 0 1000 1000" version="1.1" xmlns:xlink="http://www.w3.org/1999/xlink" xmlns="http://www.w3.org/2000/svg">
  <defs>
    <linearGradient x1="0" y1="0" x2="1" y2="1" id="gradient_1">
      <stop offset="0%" stop-color="#115BA6" />
      <stop offset="100%" stop-color="#007FFF" />
    </linearGradient>
    <linearGradient x1="0" y1="0" x2="1" y2="1" id="gradient_2">
      <stop offset="0%" stop-color="#007FFF" />
      <stop offset="100%" stop-color="#115BA6" />
    </linearGradient>
    <rect width="1000" height="1000" id="artboard_1" />
    <clipPath id="clip_1">
      <use xlink:href="#artboard_1" clip-rule="evenodd" />
    </clipPath>
  </defs>
  <g id="Full-HD" clip-path="url(#clip_1)">
    <g id="Logo" transform="translate(286 158)">
      <path d="M350.001 576L224.999 576Q224.434 576 223.87 575.972Q223.307 575.945 222.745 575.889Q222.183 575.834 221.624 575.751Q221.066 575.668 220.512 575.558Q219.958 575.448 219.411 575.311Q218.863 575.174 218.323 575.01Q217.782 574.846 217.251 574.655Q216.719 574.465 216.198 574.249Q215.676 574.033 215.166 573.792Q214.655 573.55 214.157 573.284Q213.659 573.018 213.175 572.728Q212.691 572.438 212.221 572.124Q211.752 571.81 211.298 571.474Q210.845 571.137 210.409 570.779Q209.972 570.421 209.554 570.042Q209.135 569.663 208.736 569.264Q208.337 568.864 207.958 568.446Q207.579 568.028 207.221 567.591Q206.862 567.155 206.526 566.701Q206.19 566.248 205.876 565.778Q205.562 565.309 205.272 564.825Q204.982 564.34 204.716 563.843Q204.45 563.345 204.208 562.834Q203.967 562.324 203.751 561.802Q203.535 561.281 203.344 560.749Q203.154 560.217 202.99 559.677Q202.826 559.137 202.689 558.589Q202.552 558.042 202.442 557.488Q202.332 556.934 202.249 556.376Q202.166 555.817 202.111 555.255Q202.055 554.693 202.028 554.13Q202 553.566 202 553.001L202 363.999Q202 363.434 202.028 362.871Q202.055 362.307 202.111 361.745Q202.166 361.183 202.249 360.624Q202.332 360.066 202.442 359.512Q202.552 358.958 202.689 358.411Q202.826 357.863 202.99 357.323Q203.154 356.782 203.344 356.251Q203.535 355.719 203.751 355.198Q203.967 354.676 204.208 354.166Q204.45 353.655 204.716 353.157Q204.982 352.659 205.272 352.175Q205.562 351.691 205.876 351.221Q206.19 350.752 206.526 350.298Q206.862 349.845 207.221 349.409Q207.579 348.972 207.958 348.554Q208.337 348.135 208.736 347.736Q209.135 347.337 209.554 346.958Q209.972 346.579 210.409 346.221Q210.845 345.862 211.299 345.526Q211.752 345.19 212.221 344.876Q212.691 344.562 213.175 344.272Q213.659 343.982 214.157 343.716Q214.655 343.45 215.166 343.208Q215.676 342.967 216.198 342.751Q216.719 342.535 217.251 342.344Q217.782 342.154 218.323 341.99Q218.863 341.826 219.411 341.689Q219.958 341.552 220.512 341.442Q221.066 341.332 221.624 341.249Q222.183 341.166 222.745 341.111Q223.307 341.055 223.87 341.028Q224.434 341 224.999 341L350.001 341Q350.566 341 351.129 341.028Q351.693 341.055 352.255 341.111Q352.817 341.166 353.376 341.249Q353.934 341.332 354.488 341.442Q355.042 341.552 355.589 341.689Q356.137 341.826 356.677 341.99Q357.217 342.154 357.749 342.344Q358.281 342.535 358.802 342.751Q359.324 342.967 359.834 343.208Q360.345 343.45 360.843 343.716Q361.341 343.982 361.825 344.272Q362.309 344.562 362.779 344.876Q363.248 345.19 363.701 345.526Q364.155 345.862 364.591 346.221Q365.028 346.579 365.446 346.958Q365.865 347.337 366.264 347.736Q366.663 348.135 367.042 348.554Q367.421 348.972 367.779 349.409Q368.138 349.845 368.474 350.298Q368.81 350.752 369.124 351.221Q369.438 351.691 369.728 352.175Q370.018 352.659 370.284 353.157Q370.55 353.655 370.792 354.166Q371.033 354.676 371.249 355.198Q371.465 355.719 371.656 356.251Q371.846 356.782 372.01 357.323Q372.174 357.863 372.311 358.411Q372.448 358.958 372.558 359.512Q372.668 360.066 372.751 360.624Q372.834 361.183 372.889 361.745Q372.945 362.307 372.972 362.871Q373 363.434 373 363.999L373 553.001Q373 553.566 372.972 554.13Q372.945 554.693 372.889 555.255Q372.834 555.817 372.751 556.376Q372.668 556.934 372.558 557.488Q372.448 558.042 372.311 558.589Q372.174 559.137 372.01 559.677Q371.846 560.217 371.656 560.749Q371.465 561.281 371.249 561.802Q371.033 562.324 370.792 562.834Q370.55 563.345 370.284 563.843Q370.018 564.34 369.728 564.825Q369.438 565.309 369.124 565.778Q368.81 566.248 368.474 566.701Q368.138 567.155 367.779 567.591Q367.421 568.028 367.042 568.446Q366.663 568.864 366.264 569.264Q365.865 569.663 365.446 570.042Q365.028 570.421 364.591 570.779Q364.155 571.137 363.701 571.474Q363.248 571.81 362.779 572.124Q362.309 572.438 361.825 572.728Q361.341 573.018 360.843 573.284Q360.345 573.55 359.834 573.792Q359.324 574.033 358.802 574.249Q358.281 574.465 357.749 574.656Q357.217 574.846 356.677 575.01Q356.137 575.174 355.589 575.311Q355.042 575.448 354.488 575.558Q353.934 575.668 353.376 575.751Q352.817 575.834 352.255 575.889Q351.693 575.945 351.129 575.972Q350.566 576 350.001 576Z" id="Rectangle-2" fill="none" fill-rule="evenodd" stroke="url(#gradient_1)" stroke-width="56" />
      <path d="M37.999 0L110.001 0Q110.934 0 111.866 0.0457715Q112.797 0.0915429 113.726 0.182976Q114.654 0.274408 115.577 0.411282Q116.499 0.548155 117.414 0.73014Q118.329 0.912125 119.234 1.13878Q120.139 1.36544 121.032 1.63622Q121.924 1.90701 122.802 2.22127Q123.681 2.53553 124.543 2.8925Q125.404 3.24948 126.248 3.64831Q127.091 4.04714 127.914 4.48687Q128.736 4.9266 129.536 5.40617Q130.336 5.88574 131.112 6.40399Q131.888 6.92223 132.637 7.47792Q133.386 8.0336 134.107 8.62538Q134.828 9.21715 135.52 9.8436Q136.211 10.47 136.87 11.1296Q137.53 11.7893 138.156 12.4804Q138.783 13.1716 139.375 13.8927Q139.966 14.6138 140.522 15.363Q141.078 16.1123 141.596 16.8879Q142.114 17.6635 142.594 18.4636Q143.073 19.2637 143.513 20.0864Q143.953 20.9091 144.352 21.7523Q144.751 22.5956 145.107 23.4574Q145.464 24.3192 145.779 25.1975Q146.093 26.0758 146.364 26.9685Q146.635 27.8611 146.861 28.766Q147.088 29.6709 147.27 30.5858Q147.452 31.5007 147.589 32.4234Q147.726 33.3461 147.817 34.2744Q147.908 35.2028 147.954 36.1345Q148 37.0662 148 37.999L148 646.001Q148 646.934 147.954 647.865Q147.908 648.797 147.817 649.726Q147.726 650.654 147.589 651.577Q147.452 652.499 147.27 653.414Q147.088 654.329 146.861 655.234Q146.635 656.139 146.364 657.031Q146.093 657.924 145.779 658.802Q145.464 659.681 145.107 660.542Q144.751 661.404 144.352 662.248Q143.953 663.091 143.513 663.914Q143.073 664.736 142.594 665.536Q142.114 666.336 141.596 667.112Q141.078 667.888 140.522 668.637Q139.966 669.386 139.375 670.107Q138.783 670.828 138.156 671.52Q137.53 672.211 136.87 672.87Q136.211 673.53 135.52 674.156Q134.828 674.783 134.107 675.375Q133.386 675.966 132.637 676.522Q131.888 677.078 131.112 677.596Q130.336 678.114 129.536 678.594Q128.736 679.073 127.914 679.513Q127.091 679.953 126.248 680.352Q125.404 680.75 124.543 681.107Q123.681 681.464 122.802 681.779Q121.924 682.093 121.032 682.364Q120.139 682.635 119.234 682.861Q118.329 683.088 117.414 683.27Q116.499 683.452 115.577 683.589Q114.654 683.726 113.726 683.817Q112.797 683.908 111.866 683.954Q110.934 684 110.001 684L37.999 684Q37.0662 684 36.1345 683.954Q35.2028 683.908 34.2744 683.817Q33.3461 683.726 32.4234 683.589Q31.5007 683.452 30.5858 683.27Q29.6709 683.088 28.766 682.861Q27.8611 682.635 26.9685 682.364Q26.0758 682.093 25.1975 681.779Q24.3192 681.464 23.4574 681.107Q22.5956 680.75 21.7523 680.352Q20.9091 679.953 20.0864 679.513Q19.2637 679.073 18.4636 678.594Q17.6635 678.114 16.8879 677.596Q16.1123 677.078 15.363 676.522Q14.6138 675.966 13.8927 675.375Q13.1716 674.783 12.4804 674.156Q11.7893 673.53 11.1296 672.87Q10.47 672.211 9.8436 671.52Q9.21715 670.828 8.62538 670.107Q8.0336 669.386 7.47792 668.637Q6.92223 667.888 6.40399 667.112Q5.88574 666.336 5.40617 665.536Q4.9266 664.736 4.48687 663.914Q4.04714 663.091 3.64831 662.248Q3.24948 661.404 2.8925 660.542Q2.53553 659.681 2.22127 658.802Q1.90701 657.924 1.63622 657.031Q1.36544 656.139 1.13878 655.234Q0.912125 654.329 0.73014 653.414Q0.548155 652.499 0.411282 651.577Q0.274408 650.654 0.182976 649.726Q0.0915429 648.797 0.0457715 647.865Q0 646.934 0 646.001L0 37.999Q0 37.0662 0.0457715 36.1345Q0.0915429 35.2028 0.182976 34.2744Q0.274408 33.3461 0.411282 32.4234Q0.548155 31.5007 0.73014 30.5858Q0.912125 29.6709 1.13878 28.766Q1.36544 27.8611 1.63622 26.9685Q1.90701 26.0758 2.22127 25.1975Q2.53553 24.3192 2.8925 23.4574Q3.24948 22.5956 3.64831 21.7523Q4.04714 20.9091 4.48687 20.0864Q4.9266 19.2637 5.40617 18.4636Q5.88574 17.6635 6.40399 16.8879Q6.92223 16.1123 7.47792 15.363Q8.0336 14.6138 8.62538 13.8927Q9.21715 13.1716 9.8436 12.4804Q10.47 11.7893 11.1296 11.1296Q11.7893 10.47 12.4804 9.8436Q13.1716 9.21715 13.8927 8.62538Q14.6138 8.0336 15.363 7.47792Q16.1123 6.92223 16.8879 6.40399Q17.6635 5.88574 18.4636 5.40617Q19.2637 4.9266 20.0864 4.48687Q20.9091 4.04714 21.7523 3.64831Q22.5956 3.24948 23.4574 2.8925Q24.3192 2.53553 25.1975 2.22127Q26.0758 1.90701 26.9685 1.63622Q27.8611 1.36544 28.766 1.13878Q29.6709 0.912125 30.5858 0.73014Q31.5007 0.548155 32.4234 0.411282Q33.3461 0.274408 34.2744 0.182976Q35.2028 0.0915429 36.1345 0.0457715Q37.0662 0 37.999 0L37.999 0Z" id="Rectangle" fill="url(#gradient_2)" fill-rule="evenodd" stroke="none" />
      <path d="M428 201C428 278.32 365.32 341 288 341C210.68 341 148 278.32 148 201C148 123.68 210.68 61 288 61C365.32 61 428 123.68 428 201Z" id="Ellipse" fill="none" fill-rule="evenodd" stroke="#007FFF" stroke-width="148" />
    </g>
  </g>
</svg>