<?xml version="1.0" encoding="utf-8"?>
<svg width="1000px" height="1000px" viewBox="0 0 1000 1000" version="1.1" xmlns:xlink="http://www.w3.org/1999/xlink" xmlns="http://www.w3.org/2000/svg">
  <defs>
    <linearGradient gradientUnits="userSpaceOnUse" x1="0" y1="0" x2="850" y2="850" id="gradient_1">
      <stop offset="0%" stop-color="#DD00FF" />
      <stop offset="100%" stop-color="#FF8000" />
    </linearGradient>
    <rect width="1000" height="1000" id="artboard_1" />
    <clipPath id="clip_1">
      <use xlink:href="#artboard_1" clip-rule="evenodd" />
    </clipPath>
  </defs>
  <g id="Full-HD" clip-path="url(#clip_1)">
    <g id="Logo" transform="translate(75 75)" artboard="58b6498c-c3ec-49fc-bb66-95e21645652b">
      <path d="M160.999 0L689.001 0Q692.953 0 696.901 0.19393Q700.848 0.387861 704.782 0.775254Q708.715 1.16265 712.624 1.74257Q716.534 2.32249 720.41 3.09355Q724.287 3.86461 728.12 4.82494Q731.954 5.78527 735.736 6.93256Q739.519 8.07985 743.24 9.41135Q746.961 10.7428 750.613 12.2553Q754.264 13.7678 757.837 15.4576Q761.41 17.1475 764.895 19.0106Q768.381 20.8737 771.771 22.9055Q775.161 24.9374 778.447 27.1332Q781.733 29.329 784.908 31.6834Q788.082 34.0378 791.138 36.5451Q794.193 39.0524 797.121 41.7066Q800.05 44.3608 802.844 47.1555Q805.639 49.9502 808.293 52.8787Q810.948 55.8071 813.455 58.8623Q815.962 61.9175 818.317 65.092Q820.671 68.2665 822.867 71.5527Q825.063 74.839 827.094 78.229Q829.126 81.619 830.989 85.1046Q832.853 88.5902 834.542 92.163Q836.232 95.7359 837.745 99.3873Q839.257 103.039 840.589 106.76Q841.92 110.481 843.067 114.263Q844.215 118.046 845.175 121.879Q846.135 125.713 846.906 129.59Q847.677 133.466 848.257 137.376Q848.837 141.285 849.225 145.218Q849.612 149.152 849.806 153.099Q850 157.047 850 160.999L850 689.001Q850 692.953 849.806 696.901Q849.612 700.848 849.225 704.782Q848.837 708.715 848.257 712.624Q847.677 716.534 846.906 720.41Q846.135 724.287 845.175 728.12Q844.215 731.954 843.067 735.736Q841.92 739.519 840.589 743.24Q839.257 746.961 837.745 750.613Q836.232 754.264 834.542 757.837Q832.853 761.41 830.989 764.895Q829.126 768.381 827.094 771.771Q825.063 775.161 822.867 778.447Q820.671 781.733 818.316 784.908Q815.962 788.082 813.455 791.138Q810.948 794.193 808.293 797.121Q805.639 800.05 802.844 802.844Q800.05 805.639 797.121 808.293Q794.193 810.948 791.138 813.455Q788.082 815.962 784.908 818.317Q781.733 820.671 778.447 822.867Q775.161 825.063 771.771 827.094Q768.381 829.126 764.895 830.989Q761.41 832.853 757.837 834.542Q754.264 836.232 750.613 837.745Q746.961 839.257 743.24 840.589Q739.519 841.92 735.736 843.067Q731.954 844.215 728.12 845.175Q724.287 846.135 720.41 846.906Q716.534 847.677 712.624 848.257Q708.715 848.837 704.782 849.225Q700.848 849.612 696.901 849.806Q692.953 850 689.001 850L160.999 850Q157.047 850 153.099 849.806Q149.152 849.612 145.218 849.225Q141.285 848.837 137.376 848.257Q133.466 847.677 129.59 846.906Q125.713 846.135 121.879 845.175Q118.046 844.215 114.263 843.067Q110.481 841.92 106.76 840.589Q103.039 839.257 99.3873 837.745Q95.7359 836.232 92.163 834.542Q88.5902 832.853 85.1046 830.989Q81.619 829.126 78.229 827.094Q74.839 825.063 71.5527 822.867Q68.2665 820.671 65.092 818.316Q61.9175 815.962 58.8623 813.455Q55.8071 810.948 52.8787 808.293Q49.9502 805.639 47.1555 802.844Q44.3608 800.05 41.7066 797.121Q39.0524 794.193 36.5451 791.138Q34.0378 788.082 31.6834 784.908Q29.329 781.733 27.1332 778.447Q24.9374 775.161 22.9055 771.771Q20.8737 768.381 19.0106 764.895Q17.1475 761.41 15.4576 757.837Q13.7678 754.264 12.2553 750.613Q10.7428 746.961 9.41135 743.24Q8.07985 739.519 6.93256 735.736Q5.78527 731.954 4.82494 728.12Q3.86461 724.287 3.09355 720.41Q2.32249 716.534 1.74257 712.624Q1.16265 708.715 0.775254 704.782Q0.387861 700.848 0.19393 696.901Q0 692.953 0 689.001L0 160.999Q0 157.047 0.19393 153.099Q0.387861 149.152 0.775254 145.218Q1.16265 141.285 1.74257 137.376Q2.32249 133.466 3.09355 129.59Q3.86461 125.713 4.82494 121.879Q5.78527 118.046 6.93256 114.263Q8.07985 110.481 9.41135 106.76Q10.7428 103.039 12.2553 99.3873Q13.7678 95.7359 15.4576 92.163Q17.1475 88.5902 19.0106 85.1046Q20.8737 81.619 22.9055 78.229Q24.9374 74.839 27.1332 71.5527Q29.329 68.2665 31.6834 65.092Q34.0378 61.9175 36.5451 58.8623Q39.0524 55.8071 41.7066 52.8787Q44.3608 49.9502 47.1555 47.1555Q49.9502 44.3608 52.8787 41.7066Q55.8071 39.0524 58.8623 36.5451Q61.9175 34.0378 65.092 31.6834Q68.2665 29.329 71.5527 27.1332Q74.839 24.9374 78.229 22.9055Q81.619 20.8737 85.1046 19.0106Q88.5902 17.1475 92.163 15.4576Q95.7359 13.7678 99.3873 12.2553Q103.039 10.7428 106.76 9.41135Q110.481 8.07985 114.263 6.93256Q118.046 5.78527 121.879 4.82494Q125.713 3.86461 129.59 3.09355Q133.466 2.32249 137.376 1.74257Q141.285 1.16265 145.218 0.775254Q149.152 0.387861 153.099 0.19393Q157.047 0 160.999 0Z" id="Rectangle-2" fill="url(#gradient_1)" fill-rule="evenodd" stroke="none" />
      <g id="Groupes-2" transform="translate(163.60303 142.24313)">
        <path d="M281.672 14.6172L281.673 14.618Q282.443 14.9768 283.194 15.373Q283.945 15.7691 284.675 16.2017Q285.406 16.6342 286.115 17.1021Q286.823 17.5699 287.508 18.072Q288.193 18.574 288.852 19.1091Q289.511 19.6441 290.143 20.2109Q290.776 20.7776 291.379 21.3747Q291.983 21.9718 292.556 22.5978Q293.13 23.2238 293.672 23.8772Q294.214 24.5306 294.724 25.2098Q295.233 25.889 295.709 26.5924Q296.185 27.2958 296.625 28.0217Q297.066 28.7475 297.47 29.4942Q297.874 30.2408 298.241 31.0063Q298.609 31.7719 298.938 32.5545Q299.267 33.3372 299.557 34.135Q299.848 34.9329 300.099 35.744Q300.35 36.5552 300.56 37.3777Q300.771 38.2001 300.941 39.032Q301.112 39.8638 301.241 40.703Q301.37 41.5422 301.458 42.3867Q301.546 43.2312 301.592 44.079Q301.638 44.9268 301.643 45.7758Q301.647 46.6249 301.61 47.4731Q301.573 48.3214 301.495 49.1668Q301.416 50.0122 301.296 50.8528Q301.176 51.6933 301.015 52.527Q300.854 53.3606 300.652 54.1853Q300.45 55.0101 300.208 55.8239Q299.966 56.6377 299.685 57.4387Q299.403 58.2397 299.082 59.0259Q298.762 59.8121 298.403 60.5816L77.3118 534.712Q76.953 535.482 76.5568 536.233Q76.1607 536.984 75.7282 537.715Q75.2956 538.445 74.8278 539.154Q74.3599 539.862 73.8579 540.547Q73.3558 541.232 72.8207 541.891Q72.2857 542.55 71.7189 543.182Q71.1522 543.815 70.5551 544.418Q69.958 545.022 69.332 545.595Q68.706 546.169 68.0526 546.711Q67.3992 547.254 66.72 547.763Q66.0408 548.272 65.3374 548.748Q64.634 549.224 63.9082 549.664Q63.1823 550.104 62.4357 550.509Q61.6891 550.913 60.9235 551.28Q60.158 551.648 59.3753 551.977Q58.5927 552.306 57.7948 552.596Q56.997 552.887 56.1858 553.138Q55.3747 553.389 54.5522 553.599Q53.7297 553.81 52.8979 553.98Q52.066 554.151 51.2268 554.28Q50.3877 554.409 49.5432 554.497Q48.6987 554.584 47.8509 554.631Q47.0031 554.677 46.154 554.682Q45.3049 554.686 44.4567 554.649Q43.6084 554.612 42.763 554.534Q41.9176 554.455 41.0771 554.335Q40.2365 554.215 39.4029 554.054Q38.5692 553.893 37.7445 553.691Q36.9198 553.489 36.106 553.247Q35.2921 553.005 34.4911 552.724Q33.6902 552.442 32.904 552.121Q32.1178 551.801 31.3483 551.442L31.3465 551.441Q30.5769 551.082 29.826 550.686Q29.075 550.29 28.3443 549.857Q27.6137 549.425 26.9052 548.957Q26.1966 548.489 25.5119 547.987Q24.8272 547.485 24.1679 546.95Q23.5087 546.415 22.8765 545.848Q22.2442 545.281 21.6406 544.684Q21.037 544.087 20.4633 543.461Q19.8897 542.835 19.3475 542.182Q18.8053 541.528 18.2958 540.849Q17.7863 540.17 17.3107 539.466Q16.8352 538.763 16.3947 538.037Q15.9542 537.311 15.5499 536.565Q15.1456 535.818 14.7784 535.053Q14.4112 534.287 14.082 533.504Q13.7528 532.722 13.4624 531.924Q13.172 531.126 12.9211 530.315Q12.6702 529.504 12.4594 528.681Q12.2486 527.859 12.0784 527.027Q11.9083 526.195 11.7791 525.356Q11.6499 524.517 11.5621 523.672Q11.4743 522.828 11.428 521.98Q11.3817 521.132 11.3771 520.283Q11.3724 519.434 11.4095 518.586Q11.4465 517.737 11.5251 516.892Q11.6037 516.047 11.7237 515.206Q11.8437 514.366 12.0048 513.532Q12.1659 512.698 12.3677 511.874Q12.5696 511.049 12.8116 510.235Q13.0536 509.421 13.3353 508.62Q13.617 507.819 13.9376 507.033Q14.2583 506.247 14.6171 505.477L235.708 31.3465Q236.067 30.577 236.463 29.826Q236.859 29.0751 237.292 28.3444Q237.724 27.6138 238.192 26.9053Q238.66 26.1967 239.162 25.512Q239.664 24.8273 240.199 24.168Q240.734 23.5088 241.301 22.8765Q241.868 22.2443 242.465 21.6407Q243.062 21.037 243.688 20.4634Q244.314 19.8898 244.967 19.3476Q245.621 18.8054 246.3 18.2959Q246.979 17.7864 247.682 17.3108Q248.386 16.8353 249.112 16.3948Q249.837 15.9543 250.584 15.55Q251.331 15.1457 252.096 14.7785Q252.862 14.4113 253.644 14.0821Q254.427 13.7529 255.225 13.4625Q256.023 13.1721 256.834 12.9212Q257.645 12.6703 258.468 12.4595Q259.29 12.2487 260.122 12.0785Q260.954 11.9083 261.793 11.7792Q262.632 11.65 263.477 11.5622Q264.321 11.4743 265.169 11.4281Q266.017 11.3818 266.866 11.3771Q267.715 11.3725 268.563 11.4095Q269.411 11.4466 270.257 11.5252Q271.102 11.6038 271.943 11.7238Q272.783 11.8438 273.617 12.0049Q274.451 12.166 275.275 12.3678Q276.1 12.5696 276.914 12.8117Q277.728 13.0537 278.529 13.3354Q279.33 13.6171 280.116 13.9377Q280.902 14.2583 281.672 14.6172L281.672 14.6172Z" id="Rectangle" fill="#FFFFFF" fill-rule="evenodd" stroke="none" />
        <g id="Groupes" transform="translate(144.2301 421.99796)">
          <path d="M82.5225 3.38892L82.5243 3.38977Q82.6963 3.46997 82.8642 3.55851Q83.032 3.64706 83.1954 3.74373Q83.3587 3.84041 83.517 3.94498Q83.6754 4.04955 83.8284 4.16176Q83.9815 4.27398 84.1288 4.39357Q84.2762 4.51316 84.4175 4.63983Q84.5588 4.76651 84.6937 4.89996Q84.8286 5.03342 84.9568 5.17334Q85.085 5.31325 85.2062 5.45929Q85.3274 5.60533 85.4413 5.75714Q85.5552 5.90895 85.6615 6.06616Q85.7677 6.22337 85.8662 6.38561Q85.9647 6.54785 86.055 6.71473Q86.1454 6.8816 86.2275 7.05271Q86.3095 7.22382 86.3831 7.39875Q86.4567 7.57368 86.5216 7.75201Q86.5865 7.93034 86.6426 8.11164Q86.6987 8.29293 86.7458 8.47677Q86.7929 8.6606 86.8309 8.84652Q86.869 9.03244 86.8978 9.22001Q86.9267 9.40757 86.9463 9.59633Q86.966 9.78508 86.9763 9.97458Q86.9866 10.1641 86.9877 10.3538Q86.9887 10.5436 86.9804 10.7332Q86.9722 10.9228 86.9546 11.1118Q86.937 11.3007 86.9102 11.4886Q86.8834 11.6765 86.8474 11.8628Q86.8114 12.0491 86.7663 12.2334Q86.7212 12.4178 86.6671 12.5997Q86.613 12.7816 86.55 12.9606Q86.4871 13.1396 86.4154 13.3154Q86.3437 13.4911 86.2635 13.6631L36.842 119.648Q36.7618 119.82 36.6733 119.988Q36.5847 120.156 36.4881 120.319Q36.3914 120.482 36.2868 120.641Q36.1822 120.799 36.07 120.952Q35.9578 121.105 35.8382 121.252Q35.7186 121.4 35.592 121.541Q35.4653 121.682 35.3318 121.817Q35.1984 121.952 35.0585 122.08Q34.9185 122.209 34.7725 122.33Q34.6265 122.451 34.4747 122.565Q34.3228 122.679 34.1656 122.785Q34.0084 122.891 33.8462 122.99Q33.6839 123.088 33.5171 123.179Q33.3502 123.269 33.1791 123.351Q33.008 123.433 32.833 123.507Q32.6581 123.58 32.4798 123.645Q32.3015 123.71 32.1202 123.766Q31.9389 123.822 31.755 123.869Q31.5712 123.917 31.3853 123.955Q31.1993 123.993 31.0118 124.021Q30.8242 124.05 30.6355 124.07Q30.4467 124.09 30.2572 124.1Q30.0677 124.11 29.8779 124.111Q29.6882 124.112 29.4986 124.104Q29.309 124.096 29.12 124.078Q28.9311 124.061 28.7432 124.034Q28.5553 124.007 28.369 123.971Q28.1827 123.935 27.9983 123.89Q27.814 123.845 27.6321 123.791Q27.4502 123.737 27.2712 123.674Q27.0922 123.611 26.9164 123.539Q26.7407 123.467 26.5687 123.387L26.5669 123.386Q26.3949 123.306 26.2271 123.218Q26.0592 123.129 25.8959 123.032Q25.7326 122.936 25.5742 122.831Q25.4159 122.727 25.2628 122.614Q25.1098 122.502 24.9624 122.382Q24.8151 122.263 24.6738 122.136Q24.5325 122.01 24.3976 121.876Q24.2626 121.743 24.1344 121.603Q24.0062 121.463 23.885 121.317Q23.7638 121.171 23.65 121.019Q23.5361 120.867 23.4298 120.71Q23.3235 120.553 23.225 120.39Q23.1266 120.228 23.0362 120.061Q22.9459 119.894 22.8638 119.723Q22.7817 119.552 22.7081 119.377Q22.6346 119.202 22.5696 119.024Q22.5047 118.846 22.4487 118.664Q22.3926 118.483 22.3455 118.299Q22.2984 118.115 22.2603 117.93Q22.2223 117.744 22.1934 117.556Q22.1645 117.368 22.1449 117.18Q22.1253 116.991 22.1149 116.801Q22.1046 116.612 22.1036 116.422Q22.1025 116.232 22.1108 116.043Q22.1191 115.853 22.1366 115.664Q22.1542 115.475 22.181 115.287Q22.2079 115.1 22.2439 114.913Q22.2799 114.727 22.325 114.543Q22.3701 114.358 22.4242 114.176Q22.4783 113.994 22.5412 113.815Q22.6042 113.636 22.6759 113.461Q22.7475 113.285 22.8277 113.113L72.2492 7.1281Q72.3294 6.95611 72.418 6.78826Q72.5065 6.62041 72.6032 6.4571Q72.6999 6.2938 72.8044 6.13543Q72.909 5.97707 73.0212 5.82403Q73.1334 5.67099 73.253 5.52363Q73.3726 5.37628 73.4993 5.23498Q73.626 5.09367 73.7594 4.95875Q73.8929 4.82383 74.0328 4.69562Q74.1727 4.56741 74.3188 4.44622Q74.4648 4.32503 74.6166 4.21115Q74.7684 4.09728 74.9256 3.99098Q75.0828 3.88469 75.2451 3.78624Q75.4073 3.68779 75.5742 3.59742Q75.7411 3.50705 75.9122 3.42498Q76.0833 3.34291 76.2582 3.26933Q76.4331 3.19575 76.6115 3.13084Q76.7898 3.06594 76.9711 3.00986Q77.1524 2.95378 77.3362 2.90667Q77.5201 2.85955 77.706 2.82151Q77.8919 2.78347 78.0795 2.75461Q78.267 2.72574 78.4558 2.70611Q78.6446 2.68647 78.8341 2.67613Q79.0235 2.66578 79.2133 2.66475Q79.4031 2.66371 79.5927 2.67199Q79.7823 2.68027 79.9712 2.69784Q80.1602 2.71541 80.3481 2.74223Q80.5359 2.76905 80.7222 2.80506Q80.9086 2.84107 81.0929 2.88617Q81.2773 2.93128 81.4591 2.98538Q81.641 3.03947 81.8201 3.10243Q81.9991 3.16539 82.1748 3.23706Q82.3505 3.30872 82.5225 3.38892L82.5225 3.38892Z" id="Rectangle-Copy" fill="#FFFFFF" fill-rule="evenodd" stroke="none" />
          <path d="M125.394 3.26706L125.396 3.26791Q125.568 3.34811 125.736 3.43665Q125.904 3.5252 126.067 3.62187Q126.23 3.71854 126.389 3.82312Q126.547 3.92769 126.7 4.0399Q126.853 4.15211 127 4.2717Q127.148 4.39129 127.289 4.51797Q127.43 4.64464 127.565 4.7781Q127.7 4.91156 127.828 5.05147Q127.957 5.19139 128.078 5.33743Q128.199 5.48347 128.313 5.63527Q128.427 5.78708 128.533 5.9443Q128.639 6.10151 128.738 6.26375Q128.836 6.42599 128.927 6.59287Q129.017 6.75974 129.099 6.93085Q129.181 7.10196 129.255 7.27689Q129.328 7.45182 129.393 7.63015Q129.458 7.80847 129.514 7.98977Q129.57 8.17107 129.617 8.35491Q129.665 8.53874 129.703 8.72466Q129.741 8.91058 129.77 9.09815Q129.798 9.28571 129.818 9.47447Q129.838 9.66322 129.848 9.85272Q129.858 10.0422 129.859 10.232Q129.86 10.4217 129.852 10.6113Q129.844 10.8009 129.826 10.9899Q129.809 11.1789 129.782 11.3667Q129.755 11.5546 129.719 11.7409Q129.683 11.9272 129.638 12.1116Q129.593 12.2959 129.539 12.4778Q129.485 12.6597 129.422 12.8387Q129.359 13.0178 129.287 13.1935Q129.215 13.3692 129.135 13.5412L79.7137 119.526Q79.6335 119.698 79.545 119.866Q79.4564 120.034 79.3597 120.197Q79.2631 120.36 79.1585 120.519Q79.0539 120.677 78.9417 120.83Q78.8295 120.983 78.7099 121.131Q78.5903 121.278 78.4636 121.419Q78.337 121.561 78.2035 121.695Q78.07 121.83 77.9301 121.959Q77.7902 122.087 77.6442 122.208Q77.4981 122.329 77.3463 122.443Q77.1945 122.557 77.0373 122.663Q76.8801 122.769 76.7178 122.868Q76.5556 122.966 76.3887 123.057Q76.2219 123.147 76.0507 123.229Q75.8796 123.311 75.7047 123.385Q75.5298 123.458 75.3514 123.523Q75.1731 123.588 74.9918 123.644Q74.8105 123.7 74.6267 123.748Q74.4429 123.795 74.2569 123.833Q74.071 123.871 73.8834 123.9Q73.6959 123.928 73.5071 123.948Q73.3184 123.968 73.1289 123.978Q72.9394 123.988 72.7496 123.989Q72.5598 123.99 72.3703 123.982Q72.1807 123.974 71.9917 123.956Q71.8027 123.939 71.6149 123.912Q71.427 123.885 71.2407 123.849Q71.0544 123.813 70.87 123.768Q70.6857 123.723 70.5038 123.669Q70.3219 123.615 70.1429 123.552Q69.9638 123.489 69.7881 123.417Q69.6124 123.345 69.4404 123.265L69.4386 123.264Q69.2666 123.184 69.0987 123.096Q68.9309 123.007 68.7676 122.91Q68.6043 122.814 68.4459 122.709Q68.2875 122.605 68.1345 122.492Q67.9815 122.38 67.8341 122.261Q67.6868 122.141 67.5455 122.014Q67.4042 121.888 67.2692 121.754Q67.1343 121.621 67.0061 121.481Q66.8779 121.341 66.7567 121.195Q66.6355 121.049 66.5216 120.897Q66.4078 120.745 66.3015 120.588Q66.1952 120.431 66.0967 120.269Q65.9983 120.106 65.9079 119.939Q65.8175 119.773 65.7355 119.601Q65.6534 119.43 65.5798 119.255Q65.5062 119.081 65.4413 118.902Q65.3764 118.724 65.3203 118.543Q65.2643 118.361 65.2171 118.177Q65.17 117.994 65.132 117.808Q65.0939 117.622 65.0651 117.434Q65.0362 117.247 65.0166 117.058Q64.9969 116.869 64.9866 116.68Q64.9763 116.49 64.9752 116.3Q64.9742 116.111 64.9825 115.921Q64.9907 115.731 65.0083 115.542Q65.0259 115.353 65.0527 115.166Q65.0795 114.978 65.1155 114.791Q65.1515 114.605 65.1966 114.421Q65.2418 114.236 65.2958 114.055Q65.35 113.873 65.4129 113.694Q65.4759 113.515 65.5475 113.339Q65.6192 113.163 65.6994 112.991L115.121 7.00624Q115.201 6.83425 115.29 6.6664Q115.378 6.49854 115.475 6.33524Q115.572 6.17194 115.676 6.01357Q115.781 5.85521 115.893 5.70217Q116.005 5.54912 116.125 5.40177Q116.244 5.25442 116.371 5.11311Q116.498 4.97181 116.631 4.83689Q116.765 4.70197 116.904 4.57376Q117.044 4.44555 117.19 4.32436Q117.336 4.20317 117.488 4.08929Q117.64 3.97541 117.797 3.86912Q117.955 3.76283 118.117 3.66438Q118.279 3.56593 118.446 3.47556Q118.613 3.38519 118.784 3.30312Q118.955 3.22104 119.13 3.14746Q119.305 3.07389 119.483 3.00898Q119.661 2.94407 119.843 2.888Q120.024 2.83192 120.208 2.7848Q120.392 2.73769 120.578 2.69965Q120.764 2.66161 120.951 2.63274Q121.139 2.60387 121.327 2.58424Q121.516 2.56461 121.706 2.55427Q121.895 2.54392 122.085 2.54289Q122.275 2.54185 122.464 2.55013Q122.654 2.55841 122.843 2.57598Q123.032 2.59355 123.22 2.62037Q123.408 2.64719 123.594 2.6832Q123.78 2.7192 123.965 2.76431Q124.149 2.80942 124.331 2.86351Q124.513 2.91761 124.692 2.98057Q124.871 3.04353 125.047 3.11519Q125.222 3.18686 125.394 3.26706L125.394 3.26706Z" id="Rectangle-Copy-2" fill="#FFFFFF" fill-rule="evenodd" stroke="none" />
          <path d="M147.943 53.0208L147.943 53.0228Q147.943 53.2126 147.933 53.4021Q147.924 53.5917 147.906 53.7806Q147.887 53.9694 147.859 54.1571Q147.831 54.3449 147.794 54.531Q147.757 54.7171 147.711 54.9012Q147.665 55.0853 147.61 55.2669Q147.555 55.4485 147.491 55.6272Q147.427 55.8058 147.354 55.9812Q147.282 56.1565 147.201 56.3281Q147.119 56.4996 147.03 56.667Q146.94 56.8343 146.843 56.9971Q146.745 57.1599 146.64 57.3177Q146.534 57.4755 146.421 57.6279Q146.308 57.7803 146.188 57.927Q146.068 58.0737 145.94 58.2143Q145.813 58.3549 145.679 58.4891Q145.544 58.6233 145.404 58.7508Q145.263 58.8782 145.116 58.9986Q144.97 59.119 144.817 59.232Q144.665 59.3451 144.507 59.4505Q144.349 59.556 144.186 59.6535Q144.024 59.7511 143.856 59.8405Q143.689 59.93 143.517 60.0111Q143.346 60.0923 143.171 60.1649Q142.995 60.2375 142.817 60.3015Q142.638 60.3654 142.456 60.4205Q142.275 60.4756 142.091 60.5217Q141.906 60.5678 141.72 60.6048Q141.534 60.6418 141.347 60.6697Q141.159 60.6975 140.97 60.7161Q140.781 60.7347 140.592 60.744Q140.402 60.7534 140.212 60.7534L23.2709 60.7535Q23.0811 60.7535 22.8916 60.7442Q22.702 60.7349 22.5131 60.7163Q22.3243 60.6977 22.1366 60.6698Q21.9488 60.642 21.7627 60.605Q21.5766 60.5679 21.3925 60.5218Q21.2084 60.4757 21.0268 60.4206Q20.8452 60.3655 20.6665 60.3016Q20.4878 60.2377 20.3125 60.1651Q20.1372 60.0924 19.9656 60.0113Q19.7941 59.9302 19.6267 59.8407Q19.4594 59.7512 19.2966 59.6537Q19.1338 59.5561 18.976 59.4507Q18.8182 59.3452 18.6658 59.2322Q18.5134 59.1192 18.3667 58.9988Q18.22 58.8784 18.0794 58.7509Q17.9387 58.6235 17.8046 58.4893Q17.6704 58.3551 17.5429 58.2145Q17.4155 58.0739 17.2951 57.9272Q17.1747 57.7805 17.0616 57.6281Q16.9486 57.4756 16.8432 57.3178Q16.7377 57.16 16.6402 56.9973Q16.5426 56.8345 16.4531 56.6671Q16.3637 56.4998 16.2825 56.3282Q16.2014 56.1567 16.1288 55.9813Q16.0562 55.806 15.9922 55.6273Q15.9283 55.4486 15.8732 55.267Q15.8181 55.0854 15.772 54.9014Q15.7259 54.7173 15.6889 54.5311Q15.6518 54.345 15.624 54.1573Q15.5962 53.9696 15.5776 53.7807Q15.559 53.5919 15.5496 53.4023Q15.5403 53.2128 15.5403 53.023L15.5403 53.021Q15.5403 52.8312 15.5496 52.6417Q15.559 52.4521 15.5776 52.2633Q15.5962 52.0744 15.624 51.8867Q15.6518 51.699 15.6889 51.5128Q15.7259 51.3267 15.772 51.1426Q15.8181 50.9585 15.8732 50.7769Q15.9283 50.5953 15.9922 50.4167Q16.0562 50.238 16.1288 50.0627Q16.2014 49.8873 16.2825 49.7158Q16.3637 49.5442 16.4531 49.3769Q16.5426 49.2095 16.6402 49.0467Q16.7377 48.8839 16.8432 48.7261Q16.9486 48.5684 17.0616 48.4159Q17.1747 48.2635 17.2951 48.1168Q17.4155 47.9701 17.5429 47.8295Q17.6704 47.6889 17.8045 47.5547Q17.9387 47.4205 18.0793 47.293Q18.22 47.1656 18.3667 47.0452Q18.5134 46.9248 18.6658 46.8118Q18.8182 46.6987 18.976 46.5933Q19.1338 46.4879 19.2966 46.3903Q19.4593 46.2927 19.6267 46.2033Q19.7941 46.1138 19.9656 46.0327Q20.1372 45.9515 20.3125 45.8789Q20.4878 45.8063 20.6665 45.7424Q20.8452 45.6784 21.0268 45.6233Q21.2084 45.5682 21.3925 45.5221Q21.5766 45.476 21.7627 45.439Q21.9488 45.402 22.1365 45.3741Q22.3243 45.3463 22.5131 45.3277Q22.702 45.3091 22.8915 45.2998Q23.0811 45.2905 23.2708 45.2905L140.212 45.2903Q140.402 45.2903 140.591 45.2996Q140.781 45.3089 140.97 45.3275Q141.159 45.3461 141.346 45.374Q141.534 45.4018 141.72 45.4388Q141.906 45.4759 142.091 45.522Q142.275 45.5681 142.456 45.6232Q142.638 45.6783 142.817 45.7422Q142.995 45.8061 143.171 45.8788Q143.346 45.9514 143.517 46.0325Q143.689 46.1137 143.856 46.2031Q144.024 46.2926 144.186 46.3901Q144.349 46.4877 144.507 46.5931Q144.665 46.6986 144.817 46.8116Q144.97 46.9247 145.116 47.0451Q145.263 47.1654 145.404 47.2929Q145.544 47.4203 145.678 47.5545Q145.813 47.6887 145.94 47.8293Q146.068 47.9699 146.188 48.1166Q146.308 48.2633 146.421 48.4158Q146.534 48.5682 146.64 48.726Q146.745 48.8838 146.843 49.0465Q146.94 49.2093 147.03 49.3767Q147.119 49.544 147.201 49.7156Q147.282 49.8871 147.354 50.0625Q147.427 50.2378 147.491 50.4165Q147.555 50.5952 147.61 50.7768Q147.665 50.9584 147.711 51.1425Q147.757 51.3265 147.794 51.5127Q147.831 51.6988 147.859 51.8865Q147.887 52.0742 147.905 52.2631Q147.924 52.452 147.933 52.6415Q147.943 52.8311 147.943 53.0208Z" id="Rectangle-Copy-3" fill="#FFFFFF" fill-rule="evenodd" stroke="none" />
          <path d="M132.402 91.6785L132.402 91.6805Q132.402 91.8703 132.393 92.0598Q132.384 92.2494 132.365 92.4383Q132.347 92.6271 132.319 92.8148Q132.291 93.0025 132.254 93.1887Q132.217 93.3748 132.171 93.5589Q132.125 93.743 132.07 93.9246Q132.014 94.1062 131.951 94.2849Q131.887 94.4636 131.814 94.6389Q131.741 94.8142 131.66 94.9858Q131.579 95.1573 131.49 95.3247Q131.4 95.492 131.303 95.6548Q131.205 95.8176 131.1 95.9754Q130.994 96.1332 130.881 96.2856Q130.768 96.438 130.648 96.5847Q130.527 96.7314 130.4 96.872Q130.272 97.0126 130.138 97.1468Q130.004 97.281 129.863 97.4085Q129.723 97.5359 129.576 97.6563Q129.429 97.7767 129.277 97.8897Q129.125 98.0028 128.967 98.1082Q128.809 98.2136 128.646 98.3112Q128.483 98.4088 128.316 98.4982Q128.149 98.5877 127.977 98.6688Q127.806 98.75 127.63 98.8226Q127.455 98.8952 127.276 98.9592Q127.098 99.0231 126.916 99.0782Q126.734 99.1333 126.55 99.1794Q126.366 99.2255 126.18 99.2625Q125.994 99.2995 125.806 99.3274Q125.618 99.3552 125.43 99.3738Q125.241 99.3924 125.051 99.4017Q124.862 99.411 124.672 99.4111L7.73055 99.4112Q7.54078 99.4112 7.35123 99.4019Q7.16168 99.3926 6.97283 99.374Q6.78397 99.3554 6.59625 99.3275Q6.40853 99.2997 6.2224 99.2627Q6.03627 99.2257 5.85218 99.1795Q5.6681 99.1334 5.4865 99.0783Q5.30489 99.0233 5.12621 98.9593Q4.94753 98.8954 4.7722 98.8228Q4.59688 98.7501 4.42532 98.669Q4.25377 98.5879 4.0864 98.4984Q3.91904 98.4089 3.75626 98.3114Q3.59349 98.2138 3.4357 98.1084Q3.27791 98.003 3.12548 97.8899Q2.97305 97.7769 2.82635 97.6565Q2.67966 97.5361 2.53904 97.4086Q2.39843 97.2812 2.26424 97.147Q2.13005 97.0128 2.0026 96.8722Q1.87516 96.7316 1.75477 96.5849Q1.63438 96.4382 1.52133 96.2858Q1.40828 96.1333 1.30285 95.9755Q1.19741 95.8177 1.09985 95.655Q1.00229 95.4922 0.912828 95.3248Q0.823369 95.1575 0.74223 94.9859Q0.661091 94.8143 0.588467 94.639Q0.515844 94.4637 0.451911 94.285Q0.387978 94.1063 0.332889 93.9247Q0.2778 93.7431 0.231689 93.559Q0.185577 93.375 0.148554 93.1888Q0.111531 93.0027 0.0836848 92.815Q0.0558389 92.6273 0.0372375 92.4384Q0.0186362 92.2496 0.00932413 92.06Q1.20885e-05 91.8705 1.17989e-05 91.6807L1.17958e-05 91.6787Q1.15063e-05 91.4889 0.00932298 91.2994Q0.0186344 91.1098 0.0372352 90.921Q0.055836 90.7321 0.0836813 90.5444Q0.111527 90.3567 0.148549 90.1705Q0.185572 89.9844 0.231683 89.8003Q0.277794 89.6162 0.332882 89.4346Q0.38797 89.253 0.451903 89.0743Q0.515836 88.8957 0.588459 88.7203Q0.661082 88.545 0.74222 88.3735Q0.823359 88.2019 0.912817 88.0345Q1.00228 87.8672 1.09984 87.7044Q1.1974 87.5416 1.30283 87.3838Q1.40827 87.226 1.52131 87.0736Q1.63436 86.9212 1.75475 86.7745Q1.87514 86.6278 2.00259 86.4872Q2.13003 86.3466 2.26422 86.2124Q2.39841 86.0782 2.53903 85.9507Q2.67964 85.8233 2.82634 85.7029Q2.97303 85.5825 3.12546 85.4695Q3.27789 85.3564 3.43568 85.251Q3.59347 85.1456 3.75624 85.048Q3.91902 84.9504 4.08638 84.861Q4.25375 84.7715 4.4253 84.6904Q4.59686 84.6092 4.77218 84.5366Q4.94751 84.464 5.12619 84.4001Q5.30487 84.3361 5.48647 84.281Q5.66808 84.226 5.85216 84.1798Q6.03625 84.1337 6.22238 84.0967Q6.4085 84.0597 6.59622 84.0318Q6.78394 84.004 6.9728 83.9854Q7.16166 83.9668 7.35121 83.9575Q7.54075 83.9482 7.73053 83.9482L124.672 83.948Q124.862 83.948 125.051 83.9573Q125.241 83.9666 125.43 83.9852Q125.618 84.0038 125.806 84.0317Q125.994 84.0595 126.18 84.0965Q126.366 84.1336 126.55 84.1797Q126.734 84.2258 126.916 84.2809Q127.098 84.336 127.276 84.3999Q127.455 84.4638 127.63 84.5365Q127.806 84.6091 127.977 84.6902Q128.149 84.7714 128.316 84.8608Q128.483 84.9503 128.646 85.0478Q128.809 85.1454 128.967 85.2508Q129.125 85.3563 129.277 85.4693Q129.429 85.5824 129.576 85.7028Q129.723 85.8231 129.863 85.9506Q130.004 86.078 130.138 86.2122Q130.272 86.3464 130.4 86.487Q130.527 86.6276 130.648 86.7743Q130.768 86.921 130.881 87.0734Q130.994 87.2259 131.1 87.3837Q131.205 87.5415 131.303 87.7042Q131.4 87.867 131.49 88.0344Q131.579 88.2017 131.66 88.3733Q131.741 88.5448 131.814 88.7202Q131.887 88.8955 131.951 89.0742Q132.014 89.2529 132.07 89.4345Q132.125 89.6161 132.171 89.8002Q132.217 89.9842 132.254 90.1704Q132.291 90.3565 132.319 90.5442Q132.347 90.7319 132.365 90.9208Q132.384 91.1097 132.393 91.2992Q132.402 91.4888 132.402 91.6785Z" id="Rectangle-Copy-4" fill="#FFFFFF" fill-rule="evenodd" stroke="none" />
        </g>
        <path d="M322.728 53.685L322.727 53.6865Q322.137 54.2972 321.578 54.9362Q321.019 55.5752 320.492 56.2408Q319.965 56.9064 319.471 57.5971Q318.977 58.2878 318.518 59.0019Q318.058 59.716 317.635 60.4518Q317.211 61.1876 316.824 61.9432Q316.437 62.6989 316.087 63.4727Q315.737 64.2464 315.426 65.0364Q315.115 65.8264 314.843 66.6307Q314.571 67.435 314.339 68.2517Q314.107 69.0684 313.915 69.8955Q313.723 70.7226 313.572 71.5581Q313.421 72.3936 313.311 73.2355Q313.201 74.0774 313.132 74.9237Q313.064 75.77 313.037 76.6187Q313.01 77.4673 313.025 78.3162Q313.04 79.1652 313.096 80.0124Q313.153 80.8595 313.251 81.7029Q313.349 82.5463 313.488 83.3839Q313.627 84.2215 313.807 85.0512Q313.987 85.8809 314.208 86.7008Q314.429 87.5207 314.689 88.3288Q314.95 89.1369 315.25 89.9312Q315.55 90.7255 315.888 91.5041Q316.227 92.2828 316.603 93.0439Q316.98 93.805 317.393 94.5467Q317.806 95.2884 318.255 96.0089Q318.704 96.7294 319.188 97.4271Q319.672 98.1247 320.19 98.7978Q320.707 99.4708 321.258 100.118Q321.808 100.764 322.389 101.384Q322.97 102.003 323.58 102.592L439.328 214.369L327.599 330.068Q327.009 330.679 326.45 331.318Q325.891 331.957 325.364 332.622Q324.837 333.288 324.343 333.979Q323.849 334.669 323.39 335.384Q322.93 336.098 322.507 336.833Q322.083 337.569 321.696 338.325Q321.309 339.081 320.959 339.854Q320.609 340.628 320.298 341.418Q319.987 342.208 319.715 343.012Q319.443 343.817 319.211 344.633Q318.978 345.45 318.787 346.277Q318.595 347.104 318.444 347.94Q318.292 348.775 318.183 349.617Q318.073 350.459 318.004 351.305Q317.936 352.152 317.909 353Q317.882 353.849 317.897 354.698Q317.912 355.547 317.968 356.394Q318.025 357.241 318.123 358.085Q318.221 358.928 318.36 359.766Q318.499 360.603 318.679 361.433Q318.859 362.263 319.08 363.082Q319.301 363.902 319.561 364.71Q319.822 365.518 320.122 366.313Q320.422 367.107 320.76 367.886Q321.099 368.664 321.475 369.426Q321.852 370.187 322.265 370.928Q322.678 371.67 323.127 372.391Q323.576 373.111 324.06 373.809Q324.544 374.506 325.062 375.179Q325.579 375.852 326.13 376.499Q326.68 377.146 327.261 377.765Q327.842 378.384 328.453 378.974L328.454 378.975Q329.065 379.565 329.704 380.124Q330.343 380.684 331.008 381.211Q331.674 381.738 332.365 382.232Q333.055 382.725 333.769 383.185Q334.483 383.644 335.219 384.068Q335.955 384.491 336.711 384.879Q337.466 385.266 338.24 385.615Q339.014 385.965 339.804 386.276Q340.594 386.587 341.398 386.859Q342.202 387.131 343.019 387.364Q343.836 387.596 344.663 387.788Q345.49 387.98 346.326 388.131Q347.161 388.282 348.003 388.392Q348.845 388.502 349.691 388.57Q350.537 388.638 351.386 388.665Q352.235 388.692 353.084 388.677Q353.933 388.663 354.78 388.606Q355.627 388.55 356.47 388.452Q357.314 388.354 358.151 388.215Q358.989 388.075 359.819 387.895Q360.648 387.715 361.468 387.494Q362.288 387.274 363.096 387.013Q363.904 386.752 364.699 386.452Q365.493 386.153 366.272 385.814Q367.05 385.475 367.811 385.099Q368.572 384.723 369.314 384.309Q370.056 383.896 370.776 383.447Q371.497 382.998 372.195 382.514Q372.892 382.03 373.565 381.512Q374.238 380.995 374.885 380.445Q375.532 379.895 376.151 379.314Q376.77 378.733 377.36 378.122L513.113 237.545Q513.703 236.935 514.262 236.296Q514.821 235.657 515.348 234.991Q515.875 234.325 516.369 233.635Q516.863 232.944 517.322 232.23Q517.781 231.516 518.205 230.78Q518.629 230.044 519.016 229.289Q519.403 228.533 519.753 227.759Q520.102 226.985 520.414 226.195Q520.725 225.405 520.997 224.601Q521.269 223.797 521.501 222.98Q521.733 222.163 521.925 221.336Q522.117 220.509 522.268 219.674Q522.419 218.838 522.529 217.996Q522.639 217.154 522.708 216.308Q522.776 215.462 522.803 214.613Q522.83 213.765 522.815 212.916Q522.802 212.15 522.754 211.385Q522.707 210.621 522.626 209.859Q522.545 209.097 522.43 208.34Q522.315 207.582 522.167 206.831Q522.019 206.079 521.838 205.335Q521.657 204.591 521.443 203.855Q521.229 203.12 520.982 202.394Q520.736 201.669 520.457 200.955Q520.179 200.242 519.87 199.541Q519.56 198.84 519.22 198.154Q518.879 197.468 518.509 196.797Q518.139 196.127 517.739 195.473Q517.339 194.82 516.911 194.185Q516.483 193.549 516.027 192.934Q515.571 192.318 515.088 191.724Q514.606 191.129 514.097 190.556Q514.093 190.551 514.089 190.547Q513.188 189.529 512.211 188.584L371.634 52.8314Q371.023 52.2416 370.384 51.6824Q369.745 51.1233 369.08 50.5962Q368.414 50.0691 367.723 49.5753Q367.033 49.0815 366.319 48.6222Q365.605 48.1628 364.869 47.7391Q364.133 47.3154 363.377 46.9283Q362.622 46.5411 361.848 46.1916Q361.074 45.842 360.284 45.5308Q359.494 45.2196 358.69 44.9476Q357.886 44.6755 357.069 44.4433Q356.252 44.211 355.425 44.0191Q354.598 43.8272 353.763 43.6762Q352.927 43.5251 352.085 43.4152Q351.243 43.3053 350.397 43.2368Q349.551 43.1683 348.702 43.1415Q347.853 43.1146 347.004 43.1294Q346.155 43.1443 345.308 43.2007Q344.461 43.2572 343.618 43.3551Q342.774 43.4531 341.937 43.5923Q341.099 43.7315 340.269 43.9117Q339.44 44.0918 338.62 44.3125Q337.8 44.5331 336.992 44.7937Q336.184 45.0544 335.389 45.3543Q334.595 45.6543 333.816 45.9928Q333.038 46.3314 332.277 46.7077Q331.516 47.0841 330.774 47.4974Q330.032 47.9106 329.312 48.3598Q328.591 48.8089 327.894 49.2929Q327.196 49.7768 326.523 50.2944Q325.85 50.8121 325.203 51.3621Q324.556 51.9121 323.937 52.4932Q323.318 53.0743 322.728 53.685Z" id="Rectangle-Copy-Union" fill="#FFFFFF" fill-rule="evenodd" stroke="none" />
      </g>
    </g>
  </g>
</svg>